<?xml version="1.0" standalone="no"?>
<!DOCTYPE svg PUBLIC "-//W3C//DTD SVG 20010904//EN"
 "http://www.w3.org/TR/2001/REC-SVG-20010904/DTD/svg10.dtd">
<svg version="1.0" xmlns="http://www.w3.org/2000/svg"
 width="4000.000000pt" height="4000.000000pt" viewBox="0 0 4000.000000 4000.000000"
 preserveAspectRatio="xMidYMid meet">
<metadata>
Created by potrace 1.14, written by Peter Selinger 2001-2017
</metadata>
<g transform="translate(0.000000,4000.000000) scale(0.100000,-0.100000)"
fill="#000000" stroke="none">
<path d="M19367 35034 c-1 -1 -85 -5 -187 -9 -102 -3 -207 -8 -235 -11 -27 -2
-96 -6 -153 -9 -57 -2 -107 -7 -112 -10 -6 -4 -10 0 -10 7 0 8 -3 9 -8 3 -4
-6 -20 -11 -37 -12 -30 0 -139 -8 -265 -19 -36 -3 -85 -7 -110 -9 -25 -2 -45
-4 -45 -5 0 -2 -51 -7 -115 -13 -19 -1 -41 -6 -47 -10 -8 -5 -13 -3 -13 3 0 6
-5 8 -11 4 -6 -4 -30 -8 -53 -10 -89 -7 -137 -14 -146 -19 -6 -4 -10 0 -10 7
0 9 -2 10 -8 2 -4 -7 -34 -15 -67 -19 -33 -4 -69 -8 -80 -10 -11 -2 -33 -4
-48 -4 -20 -1 -26 -5 -21 -13 6 -10 4 -10 -7 -3 -12 9 -33 11 -49 5 -10 -3
-86 -12 -117 -14 -18 0 -33 -4 -33 -8 0 -4 -13 -6 -30 -6 -16 1 -37 -5 -47
-13 -11 -9 -14 -10 -9 -1 8 13 -6 17 -18 5 -4 -4 -24 -8 -44 -10 -55 -3 -87
-9 -100 -17 -7 -4 -12 -1 -12 6 0 11 -2 11 -9 0 -4 -7 -22 -14 -39 -14 -18 -1
-32 -6 -32 -12 0 -6 -4 -6 -11 1 -12 12 -42 6 -35 -6 2 -3 -17 -6 -42 -6 -26
0 -49 -3 -52 -6 -10 -12 -71 -19 -64 -8 3 6 -4 4 -17 -4 -13 -8 -40 -14 -61
-13 -20 0 -34 -2 -32 -5 2 -4 -3 -10 -12 -13 -9 -4 -13 -2 -8 5 4 7 -1 7 -16
-1 -12 -6 -31 -10 -41 -7 -10 3 -19 1 -19 -3 0 -5 -11 -7 -25 -6 -13 2 -22 0
-20 -5 3 -4 -3 -8 -12 -9 -57 -2 -86 -8 -92 -18 -4 -7 -12 -8 -21 -2 -19 12
-33 13 -26 1 3 -5 -1 -11 -9 -15 -8 -3 -15 0 -15 7 0 7 -3 8 -8 2 -4 -6 -20
-12 -37 -14 -16 -1 -32 -6 -35 -10 -6 -9 -22 -8 -38 2 -8 6 -12 4 -10 -5 2 -8
-4 -12 -16 -10 -13 2 -16 -1 -10 -10 6 -11 5 -11 -8 0 -12 10 -18 9 -28 -3
-10 -12 -16 -13 -26 -4 -11 9 -14 8 -14 -2 0 -11 -2 -11 -10 1 -8 13 -14 8
-12 -11 1 -8 -31 -5 -46 4 -8 6 -10 3 -5 -9 4 -12 3 -15 -6 -10 -6 4 -19 2
-28 -6 -14 -11 -16 -11 -8 2 7 12 6 13 -7 3 -8 -7 -18 -10 -21 -6 -4 3 -7 1
-7 -7 0 -10 -3 -10 -15 0 -8 7 -15 8 -15 3 0 -10 -6 -12 -57 -17 -18 -1 -39
-8 -47 -15 -8 -7 -20 -10 -26 -6 -5 3 -10 1 -10 -4 0 -13 -22 -10 -32 4 -4 6
-8 2 -8 -9 0 -13 -5 -17 -20 -13 -10 3 -21 0 -24 -7 -3 -6 -5 -5 -5 3 -1 11
-5 10 -17 -5 -8 -10 -12 -12 -8 -4 7 12 5 13 -8 3 -8 -7 -18 -10 -21 -6 -4 3
-7 1 -7 -7 0 -10 -4 -10 -17 1 -9 8 -14 9 -10 3 10 -16 -18 -25 -33 -11 -10 9
-11 9 -5 -2 6 -11 2 -13 -18 -9 -15 3 -24 2 -22 -2 7 -11 -20 -20 -44 -15 -15
3 -18 0 -14 -12 5 -13 3 -14 -12 -6 -14 8 -27 6 -52 -8 -20 -11 -31 -14 -27
-7 6 10 5 11 -8 1 -8 -7 -18 -10 -21 -6 -4 3 -7 1 -7 -6 0 -7 -5 -9 -10 -6 -6
4 -17 1 -25 -5 -12 -10 -15 -10 -15 1 0 8 -5 6 -13 -6 -8 -10 -19 -15 -25 -11
-6 4 -23 -1 -37 -10 -20 -13 -25 -13 -25 -3 0 12 -2 12 -9 1 -5 -8 -20 -15
-35 -15 -14 -1 -26 -6 -26 -10 0 -5 -4 -5 -10 -2 -5 3 -10 2 -10 -4 0 -6 -7
-8 -15 -5 -8 4 -15 1 -15 -6 0 -9 -4 -9 -17 1 -9 8 -14 9 -10 3 10 -16 -18
-25 -32 -11 -7 7 -11 8 -9 2 2 -5 -2 -12 -7 -13 -6 -2 -16 -9 -24 -15 -12 -10
-13 -9 -6 3 7 12 6 13 -6 4 -23 -17 -71 -35 -64 -24 3 6 -1 7 -9 4 -9 -3 -16
-10 -16 -16 0 -5 -4 -7 -9 -4 -5 4 -12 0 -14 -6 -4 -10 -6 -9 -6 1 -1 11 -6
10 -23 -5 -14 -13 -19 -14 -14 -4 4 8 0 6 -9 -5 -12 -14 -19 -16 -22 -7 -3 6
-9 12 -14 12 -6 0 -7 -4 -4 -10 6 -9 0 -11 -44 -14 -8 -1 -16 -7 -19 -14 -2
-6 -8 -9 -13 -6 -6 3 -16 0 -24 -6 -8 -6 -19 -9 -25 -5 -5 3 -10 1 -10 -5 0
-6 -4 -8 -10 -5 -5 3 -10 0 -10 -7 0 -9 -3 -9 -10 2 -9 13 -14 7 -11 -12 0 -4
-7 -4 -16 -1 -12 5 -14 3 -8 -8 8 -12 6 -12 -8 0 -11 9 -17 10 -17 2 0 -6 -9
-11 -21 -11 -11 0 -18 -4 -15 -9 7 -11 -13 -9 -32 3 -8 5 -12 3 -10 -6 2 -8
-6 -13 -19 -12 -13 1 -20 -2 -18 -6 3 -4 -2 -11 -11 -14 -23 -9 -26 -8 -18 7
4 6 -2 4 -13 -6 -11 -10 -30 -19 -42 -20 -11 -1 -21 -5 -21 -10 0 -4 -4 -5
-10 -2 -5 3 -10 1 -10 -5 0 -6 -5 -8 -11 -5 -6 4 -17 -1 -25 -11 -9 -11 -13
-13 -9 -6 3 6 1 12 -4 12 -6 0 -11 -5 -11 -11 0 -6 -7 -9 -15 -5 -8 3 -15 1
-15 -4 0 -5 -9 -7 -20 -5 -11 2 -19 1 -19 -3 3 -20 -2 -25 -11 -12 -6 10 -10
11 -10 3 0 -7 -9 -13 -19 -13 -11 0 -23 -5 -26 -10 -4 -6 -10 -8 -15 -5 -5 3
-11 1 -15 -5 -4 -6 -11 -8 -16 -5 -5 4 -9 1 -9 -5 0 -6 -4 -9 -9 -5 -5 3 -17
-2 -25 -11 -12 -11 -16 -12 -16 -2 0 10 -2 10 -9 -1 -5 -8 -16 -11 -26 -8 -9
4 -14 3 -10 -3 3 -6 -1 -10 -9 -10 -9 0 -16 -4 -16 -10 0 -5 -6 -7 -14 -4 -8
3 -17 0 -21 -5 -3 -6 -11 -9 -16 -6 -5 4 -9 1 -9 -5 0 -6 -5 -8 -11 -4 -6 3
-14 3 -18 -2 -10 -15 -54 -37 -46 -24 4 7 -1 7 -14 -2 -12 -7 -21 -17 -21 -23
0 -5 -5 -3 -10 5 -7 11 -10 11 -10 2 0 -7 -4 -10 -10 -7 -5 3 -10 1 -10 -6 0
-7 -3 -9 -7 -6 -3 4 -12 2 -19 -4 -8 -6 -20 -9 -28 -6 -10 4 -13 1 -9 -9 4
-10 0 -12 -11 -8 -9 3 -16 1 -16 -5 0 -6 -7 -8 -17 -4 -11 4 -14 3 -9 -5 5 -8
2 -10 -8 -6 -9 3 -16 1 -16 -5 0 -6 -3 -10 -7 -10 -26 4 -43 -2 -37 -13 5 -8
2 -8 -10 1 -15 12 -17 12 -14 0 2 -8 -4 -13 -14 -13 -10 1 -18 -3 -18 -8 0 -6
-6 -8 -14 -5 -7 3 -20 -3 -29 -14 -14 -16 -42 -24 -69 -20 -5 0 -8 -3 -8 -8 0
-8 -9 -12 -45 -20 -5 -1 -17 -9 -26 -16 -8 -8 -26 -16 -39 -17 -14 -2 -33 -12
-43 -23 -10 -11 -16 -14 -12 -7 3 6 2 12 -3 12 -6 0 -13 -7 -16 -16 -3 -8 -10
-13 -15 -9 -5 3 -12 1 -16 -5 -4 -6 -11 -8 -16 -5 -5 4 -9 1 -9 -5 0 -7 -7 -9
-16 -6 -8 3 -12 2 -9 -4 6 -9 -10 -14 -42 -13 -7 1 -13 -5 -13 -13 0 -8 -3
-13 -7 -12 -5 1 -18 -3 -29 -10 -12 -6 -24 -8 -28 -5 -3 3 -6 0 -6 -7 0 -7 -3
-10 -7 -7 -3 4 -12 -1 -20 -11 -8 -9 -12 -11 -8 -4 3 6 2 12 -3 12 -6 0 -13
-7 -16 -16 -3 -8 -10 -12 -16 -9 -5 3 -10 2 -10 -4 0 -6 -7 -7 -17 -4 -12 5
-14 3 -8 -7 6 -10 4 -12 -8 -7 -11 4 -17 1 -17 -8 0 -9 -6 -12 -15 -9 -8 4
-15 1 -15 -4 0 -6 -9 -9 -20 -7 -11 2 -19 -1 -17 -8 1 -7 -4 -11 -10 -9 -7 1
-13 -3 -13 -9 0 -5 -4 -8 -9 -4 -5 3 -12 1 -16 -5 -4 -6 -11 -8 -16 -5 -5 4
-9 1 -9 -4 0 -6 -7 -11 -15 -11 -8 0 -15 -6 -15 -12 0 -9 -3 -9 -9 1 -7 11
-11 10 -22 -7 -7 -11 -19 -18 -26 -15 -7 3 -13 1 -13 -5 0 -6 -13 -13 -30 -17
-16 -4 -30 -11 -30 -16 0 -5 -7 -9 -16 -9 -9 0 -12 -5 -8 -12 5 -8 0 -7 -11 2
-10 8 -16 10 -12 4 4 -7 -11 -18 -38 -29 -24 -10 -41 -23 -38 -28 3 -5 -4 -6
-17 -2 -15 5 -20 4 -16 -4 4 -6 0 -11 -8 -11 -9 0 -16 -5 -16 -11 0 -8 -5 -7
-16 1 -12 11 -15 11 -12 -1 2 -8 -4 -14 -12 -14 -8 0 -25 -10 -39 -23 -13 -12
-29 -21 -35 -19 -6 2 -19 -5 -28 -16 -10 -11 -18 -16 -18 -11 0 5 -5 2 -10 -6
-8 -12 -10 -12 -10 -1 0 8 -8 4 -21 -10 -11 -13 -18 -17 -14 -9 4 10 2 9 -8
-2 -8 -10 -17 -15 -20 -11 -4 3 -7 1 -7 -6 0 -7 -5 -9 -10 -6 -6 3 -13 -1 -16
-10 -4 -9 -13 -14 -20 -11 -8 3 -14 1 -14 -5 0 -10 -48 -34 -62 -31 -5 1 -8
-2 -8 -8 0 -12 -69 -42 -81 -34 -5 3 -6 -3 -2 -12 4 -12 3 -15 -5 -10 -7 4
-12 2 -12 -4 0 -6 -4 -8 -10 -5 -5 3 -10 2 -10 -3 0 -9 -37 -25 -52 -23 -5 1
-8 -6 -8 -15 0 -10 -5 -14 -15 -10 -9 3 -18 -1 -22 -10 -3 -8 -11 -13 -18 -11
-6 3 -20 -6 -30 -19 -10 -13 -26 -24 -36 -24 -10 0 -25 -7 -34 -17 -14 -14
-18 -14 -26 -2 -8 11 -9 10 -7 -6 2 -15 -3 -20 -19 -19 -12 0 -20 -3 -17 -8 5
-7 -10 -12 -29 -9 -5 1 -6 -2 -4 -6 3 -5 -1 -13 -8 -20 -11 -10 -15 -10 -18 0
-3 7 -6 4 -6 -6 -1 -10 -5 -15 -11 -12 -5 3 -10 0 -10 -7 0 -9 -3 -9 -10 2 -8
13 -10 12 -10 -2 0 -16 -11 -23 -32 -19 -5 0 -8 -7 -8 -16 0 -14 -2 -15 -9 -4
-7 11 -10 9 -16 -9 -6 -18 -9 -20 -16 -9 -6 10 -9 11 -9 2 0 -7 -6 -13 -14
-13 -8 0 -16 -7 -20 -15 -3 -8 -13 -15 -21 -15 -10 0 -13 -5 -9 -12 5 -8 2 -9
-9 -5 -10 3 -17 2 -17 -4 0 -6 -4 -7 -10 -4 -5 3 -10 -2 -10 -12 0 -14 -2 -15
-9 -4 -7 11 -10 10 -15 -5 -3 -11 -17 -24 -30 -30 -21 -10 -24 -9 -20 5 2 9
-2 4 -9 -12 -7 -15 -16 -24 -20 -21 -4 4 -18 -3 -32 -16 -14 -13 -25 -20 -25
-15 0 5 -7 0 -15 -11 -8 -10 -15 -15 -15 -11 0 4 -6 2 -14 -5 -8 -7 -12 -16
-9 -21 2 -4 1 -7 -4 -6 -22 4 -43 -2 -38 -11 3 -5 1 -10 -6 -10 -7 0 -21 -8
-32 -17 -15 -13 -18 -14 -12 -3 4 8 -1 6 -13 -5 -65 -60 -74 -68 -62 -52 11
15 11 17 -3 11 -9 -3 -19 -14 -22 -25 -4 -11 -10 -17 -15 -14 -4 3 -13 -2 -20
-10 -7 -8 -18 -15 -25 -15 -8 0 -22 -11 -33 -25 -14 -17 -22 -21 -25 -13 -3 8
-6 5 -6 -6 -1 -11 -4 -17 -7 -13 -6 6 -19 -2 -56 -38 -13 -12 -18 -14 -14 -5
4 8 1 7 -8 -4 -9 -11 -20 -15 -28 -10 -7 4 -10 4 -6 -1 8 -8 -15 -35 -30 -35
-5 0 -15 -7 -22 -15 -7 -8 -16 -12 -21 -9 -5 3 -6 -3 -2 -12 4 -12 3 -15 -6
-10 -7 5 -18 0 -26 -10 -8 -11 -15 -15 -15 -11 0 4 -6 2 -14 -5 -8 -7 -11 -17
-8 -22 3 -5 0 -6 -6 -2 -6 3 -18 -1 -26 -10 -9 -8 -16 -12 -16 -7 0 4 -5 0
-11 -9 -5 -10 -15 -18 -20 -18 -6 0 -20 -10 -31 -22 -11 -13 -17 -16 -13 -8 5
12 4 12 -7 -1 -7 -8 -30 -27 -50 -41 -21 -13 -35 -28 -31 -31 6 -6 -11 -11
-29 -8 -5 0 -8 -6 -8 -16 0 -9 -3 -14 -6 -10 -4 3 -13 -1 -21 -9 -8 -8 -19
-12 -24 -8 -5 3 -8 0 -7 -8 2 -7 -5 -12 -14 -12 -11 1 -14 -4 -11 -14 4 -10 2
-13 -5 -8 -7 4 -12 2 -12 -3 0 -6 -7 -11 -16 -11 -9 0 -12 -5 -8 -12 5 -8 2
-9 -9 -5 -10 3 -17 2 -17 -4 0 -17 -24 -36 -42 -33 -11 1 -15 -3 -11 -14 4
-10 2 -13 -5 -8 -6 3 -16 -3 -22 -14 -6 -11 -15 -18 -20 -15 -5 3 -14 -4 -20
-15 -6 -11 -15 -18 -21 -15 -5 4 -9 -1 -9 -9 0 -10 -6 -13 -15 -10 -10 4 -15
0 -15 -16 0 -12 -4 -18 -10 -15 -13 8 -42 -14 -35 -25 3 -4 -7 -11 -20 -14
-16 -4 -23 -11 -19 -18 5 -7 2 -9 -9 -5 -11 4 -18 -1 -22 -14 -4 -11 -9 -18
-12 -15 -3 3 -16 -5 -28 -19 -13 -13 -26 -21 -29 -18 -3 3 -8 -2 -12 -11 -3
-9 -10 -13 -15 -10 -5 3 -9 -2 -9 -10 0 -8 -5 -18 -12 -22 -7 -5 -9 -2 -3 7 4
8 -6 -1 -23 -20 -17 -19 -35 -31 -41 -27 -6 4 -11 4 -10 -1 4 -21 -2 -32 -15
-27 -8 3 -16 -3 -19 -16 -3 -12 -10 -19 -16 -16 -6 4 -16 -2 -23 -14 -7 -11
-17 -20 -21 -20 -13 0 -37 -27 -30 -34 5 -5 -8 -9 -27 -8 -3 0 -11 -6 -18 -14
-7 -8 -10 -14 -6 -14 4 0 -3 -9 -16 -20 -12 -11 -27 -17 -31 -14 -5 3 -9 1 -9
-5 0 -14 -48 -61 -59 -58 -5 1 -8 -1 -7 -5 0 -4 -9 -15 -22 -23 -12 -9 -19
-21 -16 -27 4 -7 2 -8 -4 -4 -6 4 -22 -4 -34 -16 -13 -13 -26 -22 -31 -20 -4
1 -6 -1 -5 -5 2 -5 -1 -9 -5 -10 -12 -2 -47 -44 -47 -56 0 -5 -8 -3 -17 4 -10
8 -14 9 -10 2 7 -10 -45 -76 -55 -69 -1 1 -14 -9 -28 -23 -14 -13 -19 -20 -11
-16 9 5 12 4 7 -3 -4 -7 -14 -12 -22 -12 -8 0 -14 -5 -14 -11 0 -5 -4 -7 -10
-4 -5 3 -10 1 -10 -5 0 -17 -29 -42 -40 -35 -6 4 -10 3 -9 -2 3 -20 -2 -33
-13 -31 -7 2 -12 -3 -10 -9 1 -7 -7 -13 -19 -13 -11 0 -17 -4 -14 -10 3 -5 1
-10 -5 -10 -6 0 -8 -4 -5 -10 3 -6 -4 -10 -16 -10 -12 0 -20 -2 -17 -5 7 -8
-53 -70 -76 -78 -11 -5 -16 -13 -12 -23 3 -8 2 -12 -4 -9 -6 3 -10 1 -10 -5 0
-6 -4 -9 -8 -6 -5 3 -15 -6 -22 -19 -7 -13 -18 -21 -23 -18 -6 4 -8 0 -4 -11
4 -10 3 -15 -3 -11 -6 3 -10 1 -10 -6 0 -7 -3 -9 -6 -6 -12 11 -146 -131 -138
-145 6 -9 3 -9 -9 1 -15 12 -17 12 -11 -4 4 -10 3 -16 -2 -13 -11 7 -35 -17
-27 -26 6 -6 -12 -10 -30 -7 -4 0 -6 -5 -5 -11 2 -7 -2 -12 -8 -11 -7 1 -11
-5 -10 -15 0 -9 -4 -17 -11 -17 -17 0 -29 -15 -12 -16 8 0 -2 -7 -21 -14 -19
-7 -29 -14 -22 -14 8 -1 -7 -21 -31 -45 -25 -24 -43 -47 -40 -50 4 -3 0 -6 -8
-6 -17 0 -60 -50 -53 -61 3 -5 -3 -6 -12 -2 -11 4 -15 3 -11 -5 4 -6 -6 -20
-23 -32 -17 -12 -28 -25 -25 -30 3 -4 -5 -10 -16 -13 -14 -4 -18 -10 -13 -19
5 -9 2 -8 -11 2 -14 11 -17 12 -10 1 5 -9 0 -20 -16 -33 -13 -11 -17 -17 -9
-13 8 4 6 -1 -5 -10 -11 -9 -19 -20 -18 -25 2 -5 -4 -7 -12 -4 -9 4 -15 0 -15
-10 0 -9 -4 -16 -10 -16 -5 0 -10 -8 -10 -17 0 -15 -2 -16 -10 -3 -8 13 -10
12 -10 -2 0 -10 -5 -18 -11 -18 -6 0 -9 -7 -5 -15 3 -8 2 -14 -3 -12 -5 1 -18
-9 -30 -23 -13 -14 -19 -19 -15 -11 5 9 3 12 -5 7 -6 -4 -9 -12 -6 -17 4 -5
-1 -12 -9 -15 -9 -3 -14 -10 -11 -14 3 -5 -4 -11 -15 -15 -11 -4 -18 -11 -14
-16 3 -6 -3 -13 -15 -16 -11 -3 -19 -9 -16 -13 3 -5 1 -11 -5 -15 -6 -4 -7
-12 -3 -18 4 -7 -1 -6 -10 2 -15 12 -17 12 -11 -4 5 -13 4 -16 -4 -11 -11 6
-17 -5 -13 -27 0 -4 -4 -6 -11 -5 -6 2 -17 -7 -23 -19 -7 -13 -15 -20 -18 -16
-4 3 -7 1 -7 -5 0 -13 -22 -42 -62 -82 -16 -15 -28 -32 -28 -38 0 -5 -7 -12
-15 -16 -8 -3 -15 -13 -15 -22 0 -10 -5 -14 -16 -10 -8 3 -13 2 -10 -3 3 -4
-3 -16 -14 -26 -11 -10 -17 -22 -14 -27 3 -4 1 -7 -4 -6 -6 2 -9 1 -8 -2 0 -3
-13 -20 -31 -37 -17 -17 -29 -34 -25 -39 4 -4 0 -5 -9 -1 -11 4 -16 0 -15 -11
0 -9 -5 -16 -12 -14 -8 1 -11 -2 -8 -7 4 -5 -2 -14 -11 -20 -10 -6 -14 -11 -9
-11 5 0 1 -9 -9 -20 -10 -11 -22 -17 -26 -14 -5 3 -6 -2 -3 -10 4 -9 -1 -18
-10 -22 -9 -3 -14 -10 -11 -14 3 -5 -4 -11 -14 -15 -13 -4 -18 -12 -14 -21 3
-9 0 -14 -8 -12 -7 2 -13 -4 -14 -12 0 -8 -8 -14 -17 -14 -9 1 -14 -4 -12 -11
3 -7 -10 -28 -29 -46 -18 -19 -37 -42 -40 -52 -4 -11 -12 -15 -19 -11 -9 5 -9
3 1 -9 11 -14 11 -17 0 -17 -8 0 -19 -10 -24 -22 -6 -13 -17 -22 -24 -20 -8 2
-11 -3 -8 -10 5 -16 -17 -40 -29 -30 -4 4 -5 -1 -1 -10 3 -10 0 -19 -9 -22 -9
-3 -13 -9 -11 -13 3 -5 -1 -14 -9 -21 -8 -7 -14 -9 -14 -5 0 4 -8 -7 -17 -25
-8 -18 -18 -30 -21 -27 -3 3 -12 -9 -19 -26 -8 -19 -17 -28 -24 -23 -7 4 -9 3
-5 -4 3 -6 -1 -17 -10 -26 -8 -9 -12 -20 -9 -26 3 -5 -3 -10 -14 -10 -12 0
-18 -5 -16 -13 3 -7 -8 -27 -24 -45 -17 -17 -28 -32 -26 -32 5 0 -3 -10 -47
-62 -10 -11 -15 -25 -11 -31 3 -5 1 -7 -5 -3 -6 3 -13 -3 -17 -14 -4 -11 -11
-18 -16 -14 -5 3 -8 2 -7 -3 4 -16 -14 -53 -23 -48 -5 4 -9 -1 -9 -9 0 -9 -5
-16 -11 -16 -5 0 -7 -5 -4 -10 3 -6 0 -13 -9 -16 -9 -3 -12 -12 -9 -21 4 -9 2
-14 -3 -11 -9 6 -32 -13 -37 -29 -1 -5 -8 -7 -15 -7 -9 2 -10 -1 -2 -11 9 -10
7 -18 -5 -32 -37 -42 -71 -90 -85 -116 -9 -17 -19 -26 -28 -22 -12 4 -12 2 -3
-8 8 -11 6 -18 -9 -32 -11 -10 -20 -24 -20 -32 0 -7 -5 -13 -11 -13 -5 0 -7
-5 -3 -12 5 -8 2 -9 -11 -4 -15 5 -16 4 -6 -8 9 -11 9 -16 0 -22 -8 -5 -9 -3
-4 6 5 9 4 11 -3 6 -7 -4 -12 -15 -12 -25 0 -10 -10 -26 -22 -35 -13 -9 -17
-14 -10 -10 11 5 12 2 3 -15 -7 -11 -16 -21 -21 -21 -6 0 -10 -7 -10 -15 0 -8
-5 -15 -11 -15 -5 0 -7 5 -3 12 5 7 3 8 -5 3 -9 -5 -10 -10 -2 -18 7 -7 5 -15
-8 -26 -16 -15 -26 -32 -30 -56 -2 -5 -9 -14 -17 -18 -8 -5 -12 -12 -9 -18 4
-5 1 -9 -4 -9 -6 0 -11 -5 -11 -11 0 -7 -8 -18 -18 -26 -11 -10 -12 -12 -2 -8
12 5 12 4 -1 -7 -9 -7 -14 -19 -11 -27 2 -8 0 -11 -5 -8 -6 4 -19 -11 -29 -33
-10 -22 -23 -40 -28 -40 -4 0 -5 -7 -2 -16 3 -8 2 -12 -4 -9 -6 3 -10 -1 -10
-9 0 -8 -5 -18 -12 -22 -7 -5 -8 -3 -3 6 5 8 4 11 -3 6 -6 -4 -9 -13 -5 -21 3
-8 0 -15 -7 -15 -6 0 -8 -4 -5 -10 3 -5 1 -10 -5 -10 -6 0 -9 -3 -6 -8 8 -13
-22 -45 -35 -36 -8 5 -10 3 -4 -5 9 -15 -12 -58 -39 -83 -10 -10 -14 -18 -8
-18 7 0 12 -5 12 -12 0 -6 -3 -9 -6 -5 -10 10 -32 -17 -26 -32 3 -8 1 -12 -5
-8 -6 4 -14 0 -17 -9 -4 -10 -2 -13 7 -8 8 5 8 2 -2 -9 -7 -9 -17 -14 -22 -11
-5 3 -6 -2 -3 -10 3 -9 1 -16 -6 -16 -6 0 -9 -4 -6 -9 3 -5 -1 -14 -9 -21 -8
-7 -12 -17 -8 -23 4 -6 0 -8 -11 -4 -11 4 -15 3 -10 -4 9 -15 -17 -60 -30 -52
-7 5 -7 2 0 -8 9 -11 9 -17 -1 -26 -7 -6 -15 -10 -17 -8 -2 2 -4 -5 -5 -16 -1
-10 -11 -33 -23 -49 -12 -16 -19 -34 -16 -39 4 -5 -4 -18 -17 -28 -13 -10 -22
-23 -20 -30 2 -6 -1 -15 -8 -19 -8 -5 -9 -3 -4 6 5 8 4 11 -3 6 -6 -4 -8 -14
-5 -23 5 -12 3 -14 -7 -8 -9 5 -11 4 -6 -4 4 -6 -3 -25 -15 -43 -13 -18 -17
-28 -8 -24 7 4 3 -2 -11 -13 -15 -13 -20 -21 -11 -21 9 0 7 -6 -8 -19 -16 -14
-18 -21 -9 -24 8 -3 6 -6 -5 -6 -11 -1 -15 -6 -11 -13 4 -6 -1 -17 -11 -25
-11 -7 -16 -13 -12 -13 4 0 0 -11 -9 -25 -9 -14 -13 -25 -9 -25 5 0 -2 -9 -14
-19 -12 -10 -21 -23 -20 -27 3 -11 -23 -67 -34 -75 -5 -3 -9 -10 -9 -15 0 -5
-4 -8 -8 -7 -4 1 -6 -7 -3 -17 3 -12 0 -20 -6 -20 -7 0 -9 -4 -6 -10 3 -5 1
-10 -5 -10 -6 0 -8 -4 -5 -10 3 -5 1 -10 -4 -10 -6 0 -11 -3 -10 -7 2 -16 -14
-53 -23 -53 -5 0 -7 -4 -3 -9 3 -5 1 -12 -5 -16 -6 -4 -8 -11 -5 -16 4 -5 -1
-12 -9 -15 -9 -3 -13 -11 -9 -17 3 -5 -2 -16 -12 -24 -11 -7 -15 -13 -11 -13
5 0 3 -7 -4 -15 -6 -8 -9 -19 -5 -25 5 -9 -6 -14 -26 -12 -3 1 -4 -10 -1 -23
2 -15 0 -25 -7 -25 -6 0 -11 -7 -11 -16 0 -9 -10 -30 -22 -47 -12 -17 -17 -27
-10 -23 20 12 13 -9 -7 -23 -11 -8 -18 -23 -16 -33 3 -14 0 -18 -9 -15 -10 4
-12 0 -9 -14 3 -10 0 -19 -6 -19 -5 0 -8 -7 -5 -15 4 -8 1 -15 -5 -15 -6 0
-11 -9 -11 -20 0 -11 -4 -20 -8 -20 -5 0 -15 -19 -23 -42 -7 -24 -20 -48 -28
-54 -10 -8 -11 -13 -3 -18 9 -5 9 -11 -1 -20 -6 -8 -16 -11 -21 -8 -5 3 -6 0
-2 -7 4 -6 2 -19 -6 -28 -9 -12 -9 -15 0 -9 19 12 14 -3 -12 -31 -14 -15 -22
-33 -19 -44 3 -11 -1 -21 -10 -25 -9 -3 -13 -13 -10 -25 3 -10 1 -19 -4 -19
-5 0 -16 -18 -23 -40 -7 -22 -18 -40 -24 -40 -6 0 -4 -5 4 -10 8 -5 10 -10 5
-10 -6 0 -16 -9 -23 -21 -11 -17 -11 -20 0 -13 10 6 10 4 -1 -9 -7 -9 -10 -17
-5 -17 5 0 1 -5 -8 -11 -10 -5 -15 -16 -12 -24 4 -8 1 -15 -6 -15 -6 0 -9 -4
-5 -9 3 -5 0 -13 -6 -16 -5 -4 -8 -13 -5 -21 3 -8 1 -14 -5 -14 -6 0 -7 -4 -4
-10 3 -5 1 -10 -5 -10 -6 0 -8 -4 -5 -10 3 -5 1 -10 -5 -10 -7 0 -9 -7 -6 -16
4 -10 2 -13 -6 -8 -7 5 -9 2 -5 -8 3 -9 -1 -25 -8 -36 -8 -10 -11 -22 -8 -26
3 -3 1 -6 -6 -6 -7 0 -10 -3 -7 -8 2 -4 -6 -29 -18 -54 -13 -26 -19 -45 -15
-43 4 3 5 -4 2 -16 -3 -11 -11 -18 -17 -16 -7 3 -11 -8 -11 -27 0 -19 -5 -30
-12 -29 -7 2 -10 -4 -7 -12 4 -9 0 -23 -7 -32 -12 -14 -12 -16 0 -8 8 5 4 -7
-9 -25 -13 -19 -18 -30 -9 -26 7 4 6 1 -4 -7 -12 -10 -15 -17 -7 -22 8 -5 6
-13 -5 -25 -9 -10 -14 -23 -11 -28 3 -6 0 -12 -8 -15 -7 -3 -12 -16 -11 -31 2
-17 -1 -23 -10 -20 -9 4 -11 -2 -8 -20 3 -15 1 -26 -6 -26 -5 0 -8 -7 -5 -15
4 -9 0 -15 -7 -15 -11 0 -11 -3 1 -10 8 -5 10 -10 4 -10 -12 0 -27 -36 -24
-59 1 -7 -3 -10 -8 -7 -5 3 -8 -6 -6 -20 2 -20 -1 -24 -14 -19 -14 5 -14 4 -5
-6 10 -10 9 -17 -5 -33 -9 -11 -11 -16 -5 -12 9 5 11 2 7 -8 -3 -9 -10 -14
-14 -11 -5 3 -7 -6 -4 -20 2 -14 0 -25 -5 -25 -6 0 -7 -7 -4 -17 5 -12 3 -14
-7 -8 -10 6 -12 4 -7 -8 4 -10 1 -17 -6 -17 -8 0 -6 -4 3 -10 11 -7 11 -10 2
-10 -7 0 -10 -4 -7 -10 3 -5 1 -10 -5 -10 -6 0 -9 -4 -6 -9 9 -14 -5 -42 -16
-35 -6 4 -5 -4 2 -16 9 -17 9 -21 0 -15 -9 5 -10 1 -5 -15 6 -18 4 -22 -8 -17
-11 4 -14 2 -10 -9 7 -19 -5 -66 -17 -59 -5 3 -12 0 -16 -6 -4 -7 -3 -9 3 -6
17 11 23 -20 7 -34 -8 -7 -13 -18 -10 -26 3 -7 1 -13 -5 -13 -6 0 -8 -4 -4 -9
3 -5 0 -13 -6 -17 -8 -4 -7 -9 2 -15 10 -6 11 -9 2 -9 -7 0 -13 -7 -13 -15 0
-8 -6 -15 -12 -15 -8 0 -9 -3 -3 -8 12 -9 18 -32 7 -31 -19 3 -23 -2 -12 -16
9 -10 9 -15 1 -15 -6 0 -10 -6 -8 -12 1 -7 -4 -12 -12 -10 -12 3 -12 0 -2 -11
9 -12 8 -18 -4 -31 -11 -11 -12 -16 -4 -16 7 0 5 -8 -7 -22 -10 -12 -13 -18
-6 -14 18 10 15 -4 -6 -27 -12 -15 -13 -18 -2 -12 9 5 7 -1 -5 -15 -11 -13
-14 -20 -7 -16 6 4 12 3 12 -2 0 -6 -6 -12 -14 -15 -8 -3 -12 -16 -11 -31 2
-14 -1 -28 -5 -31 -5 -3 -6 -13 -3 -22 5 -12 3 -14 -8 -8 -11 7 -11 5 1 -10 9
-11 10 -16 2 -11 -13 8 -16 -2 -12 -41 1 -13 -3 -23 -9 -23 -5 0 -8 -9 -6 -20
2 -11 -1 -20 -7 -20 -6 0 -8 -3 -5 -7 4 -3 1 -13 -6 -21 -10 -13 -9 -14 3 -7
12 6 13 5 2 -6 -6 -7 -12 -24 -12 -37 0 -15 -4 -21 -12 -16 -7 4 -8 3 -4 -5 4
-6 2 -19 -6 -28 -9 -12 -9 -15 0 -9 6 4 12 2 12 -3 0 -6 -4 -11 -9 -11 -6 0
-8 -9 -6 -20 3 -13 -2 -20 -12 -20 -15 0 -14 -2 1 -13 17 -12 17 -14 3 -20
-10 -4 -14 -14 -12 -27 2 -11 0 -20 -6 -20 -5 0 -9 -14 -9 -31 0 -21 -4 -28
-12 -23 -10 6 -10 4 0 -8 9 -11 10 -18 2 -23 -5 -3 -10 -11 -10 -16 0 -6 5 -7
11 -3 6 3 3 -5 -6 -20 -10 -14 -14 -26 -10 -26 4 0 2 -6 -4 -13 -6 -8 -8 -16
-6 -19 3 -3 -1 -26 -10 -52 -9 -25 -13 -51 -10 -56 3 -6 0 -10 -7 -10 -11 0
-10 -2 0 -9 11 -7 10 -9 -3 -14 -12 -5 -14 -11 -5 -26 11 -22 -2 -37 -22 -25
-10 6 -10 5 -1 -7 7 -9 11 -24 8 -35 -2 -10 -9 -36 -14 -56 -5 -21 -6 -38 -2
-38 3 0 -1 -5 -9 -10 -8 -5 -10 -10 -3 -10 15 0 4 -40 -11 -40 -6 0 -4 -5 4
-10 9 -6 11 -10 3 -10 -7 0 -10 -7 -7 -15 4 -9 0 -15 -7 -15 -11 0 -11 -3 1
-10 12 -7 12 -10 1 -10 -7 0 -11 -6 -7 -15 3 -8 1 -15 -4 -15 -5 0 -7 -11 -4
-24 2 -14 0 -28 -6 -31 -5 -3 -10 -11 -10 -16 0 -6 4 -7 10 -4 6 3 7 -1 4 -9
-3 -9 -11 -13 -18 -9 -6 4 -5 -1 3 -10 7 -9 9 -17 4 -17 -8 0 -12 -17 -13 -63
-1 -9 -5 -15 -10 -12 -6 3 -7 -1 -4 -9 3 -9 11 -13 18 -10 6 3 4 0 -4 -8 -8
-7 -16 -22 -18 -33 -1 -11 -5 -31 -7 -45 -3 -14 -7 -36 -8 -50 -1 -14 -6 -31
-10 -37 -5 -8 -3 -13 4 -13 8 0 8 -4 -1 -15 -7 -8 -10 -22 -6 -30 3 -8 2 -15
-2 -15 -4 0 -9 -12 -10 -27 -1 -16 -5 -39 -8 -53 -3 -14 -6 -37 -7 -52 0 -16
-5 -28 -10 -28 -5 0 -4 -7 3 -15 8 -9 9 -15 2 -15 -6 0 -9 -9 -7 -20 2 -11 0
-20 -5 -20 -4 0 -6 -9 -3 -20 3 -11 0 -27 -7 -35 -9 -11 -9 -15 -1 -15 7 0 9
-4 6 -10 -11 -18 -26 -116 -29 -193 0 -20 -4 -37 -8 -37 -3 0 -5 -8 -3 -17 1
-10 -2 -26 -7 -37 -8 -14 -7 -17 3 -11 8 6 10 4 5 -4 -8 -13 -12 -35 -21 -111
-3 -25 -7 -63 -10 -85 -3 -22 -7 -65 -9 -95 -3 -30 -7 -75 -10 -100 -3 -25 -8
-70 -10 -101 -3 -30 -7 -75 -10 -100 -9 -75 -15 -156 -30 -389 -1 -14 -5 -30
-9 -37 -4 -6 -4 -14 1 -17 5 -3 7 -20 5 -38 -3 -34 -5 -68 -19 -333 -10 -200
-11 -1072 0 -1260 4 -77 9 -170 10 -206 2 -36 7 -72 11 -79 6 -9 4 -11 -5 -5
-9 6 -11 4 -5 -5 5 -8 9 -36 11 -64 2 -52 12 -231 19 -341 3 -33 5 -60 6 -60
1 0 2 -14 4 -30 1 -17 5 -48 9 -69 6 -30 5 -36 -6 -30 -10 6 -10 5 0 -9 8 -9
15 -44 17 -79 2 -35 4 -63 5 -63 1 0 3 -15 5 -33 2 -18 -1 -30 -5 -27 -5 3 -4
-5 3 -18 7 -13 12 -47 12 -76 0 -28 3 -51 7 -51 4 0 6 -8 6 -18 0 -9 3 -39 7
-67 4 -27 8 -66 9 -86 1 -19 6 -41 10 -47 4 -7 2 -12 -6 -12 -8 0 -9 -3 -2 -8
5 -4 10 -22 9 -40 0 -18 2 -35 5 -37 3 -2 7 -25 9 -52 1 -26 5 -50 9 -53 4 -3
8 -23 9 -45 3 -51 6 -67 17 -84 7 -11 6 -12 -5 -6 -12 8 -12 6 0 -8 11 -14 11
-17 0 -17 -9 0 -10 -3 -4 -8 10 -7 18 -44 19 -89 0 -13 3 -23 7 -23 4 0 6 -13
5 -30 -1 -16 1 -30 5 -30 3 0 5 -14 4 -31 -2 -23 1 -29 12 -25 9 4 11 2 6 -7
-10 -17 -3 -70 11 -79 8 -6 8 -8 -1 -8 -9 0 -9 -8 -1 -30 5 -17 8 -37 5 -44
-3 -8 1 -17 10 -20 12 -5 13 -9 3 -21 -10 -12 -10 -15 0 -15 7 0 10 -7 7 -15
-4 -8 -2 -17 2 -19 4 -3 7 -21 6 -41 -1 -19 3 -35 7 -35 5 0 6 -5 2 -11 -3 -6
0 -15 7 -20 12 -8 12 -10 0 -18 -9 -6 -10 -11 -2 -15 6 -4 9 -12 6 -17 -4 -5
-2 -9 2 -9 8 0 14 -28 16 -77 1 -13 5 -23 9 -23 4 0 6 -13 4 -29 -2 -20 2 -32
13 -36 12 -5 13 -8 2 -14 -9 -6 -10 -11 -2 -15 6 -4 11 -12 11 -17 0 -6 -6 -7
-12 -3 -10 6 -10 5 -1 -7 7 -9 15 -26 17 -40 3 -13 5 -24 6 -24 3 0 11 -50 12
-72 0 -13 3 -23 8 -23 4 0 7 -14 8 -32 0 -17 5 -34 9 -37 5 -3 8 -16 7 -29 -1
-13 5 -30 13 -38 8 -8 10 -14 5 -14 -5 0 -9 -7 -9 -15 0 -8 6 -15 13 -15 7 0
10 -8 7 -20 -3 -11 -2 -28 2 -37 5 -10 7 -24 6 -30 -1 -7 3 -13 8 -13 5 0 8
-11 5 -25 -3 -16 0 -25 8 -25 10 0 10 -2 0 -9 -11 -7 -11 -9 1 -14 10 -4 13
-13 10 -26 -3 -14 -1 -21 8 -21 11 0 11 -2 -1 -10 -12 -8 -12 -10 -1 -10 8 0
11 -7 8 -20 -3 -11 -1 -20 5 -20 5 0 6 -4 3 -10 -3 -5 0 -10 7 -10 9 0 9 -3
-2 -10 -12 -8 -12 -10 -1 -10 8 0 11 -7 8 -20 -3 -13 -1 -18 6 -13 7 4 8 0 4
-11 -6 -14 -3 -17 9 -12 14 5 15 4 4 -9 -10 -12 -10 -18 0 -30 10 -12 10 -15
-1 -15 -9 -1 -8 -4 4 -11 15 -9 16 -13 5 -27 -11 -13 -11 -15 3 -10 12 5 15 1
13 -18 -1 -13 1 -24 6 -24 5 0 7 -8 6 -17 -2 -10 4 -24 13 -31 14 -12 14 -13
0 -9 -9 3 -16 -1 -16 -9 0 -8 7 -14 15 -14 9 0 13 -7 9 -20 -3 -11 -1 -20 5
-20 6 0 8 -7 4 -15 -3 -8 -2 -15 3 -15 5 0 7 -10 7 -22 -1 -13 4 -31 12 -40 8
-10 12 -26 9 -38 -3 -11 0 -23 5 -27 7 -4 8 -1 3 7 -5 8 -4 11 2 7 6 -4 9 -18
8 -32 -2 -14 1 -25 6 -25 5 0 9 -5 9 -11 0 -5 -6 -7 -12 -4 -7 4 -2 -3 12 -15
14 -12 19 -19 13 -15 -7 3 -13 1 -13 -4 0 -6 4 -11 10 -11 5 0 7 -7 4 -15 -4
-8 -1 -15 6 -15 9 0 10 -3 1 -14 -8 -10 -8 -16 3 -25 8 -7 13 -23 11 -37 -2
-18 1 -22 10 -14 9 8 11 4 7 -15 -3 -16 0 -25 8 -25 9 0 9 -4 -1 -17 -12 -14
-12 -16 0 -8 11 6 13 3 9 -13 -4 -12 -2 -20 2 -17 9 5 27 -40 25 -65 0 -8 5
-21 12 -28 7 -7 9 -20 6 -29 -5 -12 -3 -14 8 -8 11 7 11 5 -1 -10 -9 -11 -10
-16 -2 -11 12 7 15 0 15 -37 0 -9 4 -17 8 -17 5 0 9 -6 9 -14 0 -7 6 -26 14
-41 8 -15 13 -36 11 -46 -2 -11 0 -19 6 -19 5 0 9 -12 9 -26 0 -17 4 -23 13
-18 7 5 6 0 -3 -11 -9 -11 -10 -16 -2 -11 11 6 17 -5 13 -26 0 -5 4 -8 9 -8 5
0 9 -3 9 -7 -4 -26 2 -53 11 -48 6 4 10 3 9 -2 -5 -29 2 -63 12 -57 8 5 10 -1
7 -19 -3 -16 0 -28 8 -31 7 -3 11 -16 10 -30 -2 -14 1 -23 5 -20 5 3 9 2 10
-3 2 -27 11 -58 17 -63 7 -5 10 -14 18 -55 2 -11 8 -21 13 -23 5 -2 6 -12 3
-24 -3 -14 -1 -19 6 -14 8 5 12 -2 12 -18 0 -14 4 -26 8 -26 5 0 9 -6 9 -12 1
-23 8 -42 21 -56 7 -8 10 -18 7 -23 -4 -5 -1 -9 6 -9 8 0 8 -5 -2 -17 -7 -10
-9 -15 -5 -11 11 10 38 -41 32 -59 -3 -7 0 -12 6 -10 7 1 12 -2 13 -8 0 -5 4
-16 9 -24 6 -10 5 -12 -2 -7 -17 10 -15 0 4 -18 8 -9 17 -27 18 -41 1 -14 6
-28 11 -33 4 -4 5 -1 0 7 -5 9 -4 12 3 7 6 -4 9 -13 6 -20 -3 -8 -1 -17 5 -21
6 -3 11 -15 11 -26 0 -10 4 -19 8 -19 5 0 9 -7 10 -15 1 -8 3 -22 4 -30 1 -8
5 -15 10 -15 4 0 8 -7 8 -16 0 -8 7 -22 15 -31 8 -8 13 -19 10 -24 -4 -5 -1
-9 4 -9 6 0 11 -14 11 -31 0 -17 4 -28 10 -24 9 5 15 -24 11 -48 -1 -5 3 -6 8
-3 11 7 19 -12 16 -41 -1 -12 2 -20 7 -17 7 5 10 -3 7 -22 0 -4 3 -10 8 -13
13 -10 33 -49 33 -66 0 -10 5 -13 12 -9 6 4 8 3 5 -3 -3 -5 0 -21 8 -36 7 -14
11 -28 7 -31 -3 -3 0 -6 7 -6 7 0 9 -4 6 -10 -3 -5 -2 -10 3 -10 9 0 23 -31
26 -55 1 -5 8 -16 16 -23 13 -12 13 -13 0 -6 -11 6 -10 2 3 -13 9 -11 14 -23
10 -26 -3 -4 -1 -7 6 -7 8 0 11 -7 7 -15 -3 -9 1 -18 9 -21 8 -4 12 -10 9 -15
-3 -5 0 -9 6 -9 7 0 10 -7 6 -15 -3 -8 -1 -15 5 -15 6 0 8 -4 5 -9 -3 -5 1
-11 9 -15 8 -3 15 -15 15 -26 0 -11 5 -20 11 -20 5 0 8 -4 4 -9 -3 -5 -1 -12
4 -16 6 -3 8 -12 4 -20 -3 -10 1 -15 12 -15 9 0 14 -4 10 -9 -3 -5 1 -15 8
-23 8 -7 12 -19 9 -27 -3 -8 0 -11 7 -7 6 4 12 0 12 -8 3 -33 4 -37 19 -46 8
-5 11 -10 7 -10 -4 0 -2 -10 5 -22 7 -13 11 -26 10 -30 -1 -5 3 -8 9 -8 5 0 8
-4 5 -9 -3 -5 1 -14 9 -21 8 -7 15 -18 15 -25 0 -8 5 -15 10 -17 6 -2 11 -17
13 -34 1 -23 6 -30 16 -26 10 4 13 1 8 -11 -3 -9 -2 -17 3 -17 6 0 10 -5 10
-11 0 -7 8 -18 18 -26 10 -9 11 -11 2 -7 -11 5 -10 1 3 -13 14 -16 15 -22 5
-26 -9 -4 -7 -6 4 -6 9 -1 20 -6 24 -13 5 -7 3 -8 -7 -3 -7 5 -4 -4 9 -19 12
-16 22 -35 22 -43 0 -8 4 -11 10 -8 13 8 13 -8 0 -23 -6 -6 -7 -10 -4 -7 9 6
34 -21 34 -38 0 -9 5 -17 10 -19 6 -2 12 -13 13 -25 0 -12 4 -21 8 -20 4 1 8
-2 9 -8 1 -5 8 -18 17 -27 8 -9 12 -22 7 -29 -4 -8 -3 -10 4 -5 11 6 16 -6 13
-26 0 -5 6 -8 14 -8 8 0 14 -3 13 -7 -4 -15 13 -53 24 -53 5 0 7 -7 4 -16 -3
-8 -2 -12 4 -9 5 3 12 -6 16 -20 3 -14 10 -25 15 -25 5 0 9 -11 9 -25 0 -16 6
-25 16 -25 8 0 12 -4 9 -10 -3 -5 -1 -10 5 -10 6 0 8 -5 5 -10 -3 -6 -2 -10 4
-10 6 0 7 -7 4 -17 -4 -10 -2 -14 5 -9 6 4 16 -8 23 -28 7 -19 16 -33 21 -30
4 3 8 -4 8 -15 0 -12 5 -21 12 -21 6 0 8 -3 5 -7 -4 -3 1 -12 11 -20 9 -8 11
-11 3 -7 -9 5 -12 3 -7 -4 4 -7 15 -12 24 -12 14 0 15 -2 2 -10 -12 -8 -12
-10 4 -16 14 -5 15 -9 4 -15 -10 -7 -9 -9 3 -9 9 0 22 -13 29 -30 7 -18 17
-27 24 -23 6 4 4 -2 -4 -12 -9 -11 -10 -16 -2 -11 7 4 12 1 12 -8 0 -9 5 -16
10 -16 6 0 10 -9 10 -21 0 -13 4 -18 12 -13 7 5 9 2 6 -8 -4 -8 2 -20 13 -27
11 -6 17 -16 14 -21 -3 -6 -1 -10 4 -10 6 0 10 -3 10 -7 -3 -20 2 -34 11 -28
6 3 10 -1 10 -9 0 -9 5 -16 11 -16 5 0 8 -4 4 -9 -3 -5 -1 -12 5 -16 6 -4 8
-11 5 -16 -3 -5 2 -6 11 -2 12 4 15 3 10 -5 -4 -7 -2 -12 4 -12 6 0 9 -4 5 -9
-3 -5 -1 -12 5 -16 6 -4 7 -12 4 -18 -4 -7 -4 -9 1 -5 11 11 47 -33 40 -49 -2
-8 -1 -12 4 -9 4 3 14 -7 22 -22 8 -15 20 -33 27 -40 7 -8 10 -18 7 -23 -4 -5
1 -9 9 -9 9 0 16 -9 16 -20 0 -11 5 -20 12 -20 6 0 8 -3 4 -7 -3 -4 4 -13 16
-20 14 -7 17 -12 9 -13 -11 0 -9 -4 5 -15 10 -8 15 -15 10 -15 -5 0 0 -8 10
-18 11 -9 25 -29 33 -45 8 -15 18 -27 23 -27 4 0 8 -8 8 -18 0 -9 11 -26 25
-36 13 -10 22 -22 19 -27 -3 -5 0 -9 5 -9 6 0 11 -9 11 -21 0 -15 5 -19 15
-15 8 3 14 2 13 -2 -2 -11 14 -46 29 -60 7 -8 10 -18 7 -24 -4 -6 -3 -8 2 -5
6 3 16 2 24 -4 10 -6 11 -9 3 -9 -12 0 -1 -18 35 -55 6 -8 12 -21 12 -30 0 -9
4 -14 9 -11 10 7 28 -12 33 -34 5 -22 22 -39 33 -32 6 3 4 -2 -4 -12 -8 -9
-10 -16 -5 -14 5 1 23 -10 39 -26 17 -16 24 -26 18 -22 -22 13 -14 -2 20 -35
17 -18 25 -28 17 -23 -10 5 -9 3 2 -8 10 -9 18 -21 18 -26 0 -5 7 -13 16 -16
8 -3 12 -10 9 -16 -3 -5 1 -10 10 -10 9 0 13 -4 10 -10 -3 -5 -1 -10 6 -10 7
0 10 -3 6 -6 -3 -4 0 -13 8 -21 13 -13 15 -302 16 -2186 1 -1195 1 -2175 0
-2180 0 -4 4 -7 10 -7 8 0 8 -5 -1 -15 -7 -8 -8 -15 -3 -15 5 0 10 -11 11 -25
2 -33 6 -49 12 -55 3 -3 11 -17 17 -33 10 -21 10 -27 0 -27 -9 0 -9 -2 -1 -8
7 -4 23 -28 37 -54 14 -26 29 -44 33 -40 5 4 2 -1 -5 -10 -11 -15 -11 -18 2
-18 17 0 43 -38 39 -54 -2 -5 4 -6 12 -3 9 4 15 3 13 -1 -1 -4 10 -20 26 -36
15 -15 24 -32 21 -38 -4 -6 -3 -8 3 -5 13 8 55 -27 46 -37 -4 -4 0 -4 10 0 10
3 17 1 17 -6 0 -6 4 -8 10 -5 5 3 10 -1 10 -9 0 -9 7 -13 20 -11 11 2 19 -1
17 -8 -1 -7 4 -11 10 -9 7 1 13 -3 13 -9 0 -5 4 -7 10 -4 5 3 10 1 10 -5 0 -6
4 -9 9 -6 5 4 12 0 14 -6 4 -10 6 -9 6 1 1 9 8 6 21 -9 11 -13 20 -19 20 -13
0 5 7 10 14 10 8 0 15 -3 14 -6 -2 -19 4 -24 12 -11 7 11 10 11 10 2 0 -7 5
-10 10 -7 6 3 10 0 10 -7 0 -9 3 -9 10 2 8 13 10 12 10 -3 0 -10 5 -15 10 -12
6 4 7 12 3 18 -3 7 2 5 13 -4 15 -12 40 -15 114 -14 156 3 162 4 154 18 -6 9
-4 9 8 -1 11 -9 18 -10 23 -2 3 5 17 10 31 10 18 0 23 4 18 12 -5 8 0 7 11 -2
17 -13 18 -13 13 0 -4 11 1 16 13 17 13 1 17 -2 12 -10 -4 -7 5 -4 20 6 15 10
32 15 37 12 6 -3 10 -2 10 4 0 6 7 7 17 4 10 -4 14 -2 9 5 -4 7 1 10 14 7 11
-2 24 3 30 13 5 10 10 12 10 4 0 -9 8 -8 28 5 24 16 26 16 14 1 -12 -15 -11
-16 12 -5 14 7 26 17 26 22 0 6 5 3 10 -5 8 -12 10 -12 10 5 0 17 2 17 10 5 7
-11 10 -11 10 -2 0 7 5 10 10 7 6 -4 17 -1 25 5 8 6 19 9 25 5 5 -3 10 2 10
11 0 10 3 14 7 11 3 -4 12 -2 20 5 11 9 12 7 7 -8 -5 -18 -5 -18 9 -1 16 20
32 23 21 5 -4 -7 1 -6 12 3 10 9 25 14 32 12 6 -3 12 0 12 7 0 6 4 9 9 6 5 -4
12 0 14 6 4 11 6 11 6 0 1 -12 5 -11 58 16 29 15 36 15 28 0 -4 -7 0 -6 7 4
10 12 18 14 32 6 9 -5 20 -7 23 -4 4 3 1 6 -5 6 -7 0 -12 4 -12 10 0 5 7 6 17
3 12 -5 14 -3 8 8 -7 12 -6 12 7 1 13 -10 18 -10 24 -1 5 8 3 10 -7 4 -8 -5
-11 -5 -7 0 4 4 24 9 44 11 20 2 42 8 50 14 7 7 17 9 23 6 5 -3 11 0 14 8 3 9
15 12 31 9 17 -4 26 -1 26 7 0 8 8 10 22 7 12 -4 28 -1 35 5 7 6 13 7 13 2 0
-4 7 1 16 12 8 10 13 14 10 7 -4 -8 3 -11 21 -9 19 3 28 9 27 20 -1 12 2 14
10 7 9 -7 17 -7 26 2 10 10 12 9 6 -3 -7 -13 -6 -13 6 0 7 8 25 15 40 14 16
-1 25 3 21 9 -4 6 0 8 10 4 10 -3 17 -2 17 2 0 5 11 8 25 7 13 -2 22 1 19 5
-3 5 9 9 25 9 17 0 31 5 31 11 0 5 5 7 10 4 6 -3 10 -1 10 5 0 8 6 7 21 -1 13
-7 19 -7 15 -1 -3 6 -2 13 4 17 5 3 10 1 10 -5 0 -6 5 -8 10 -5 6 4 7 12 3 18
-4 7 0 6 10 -2 12 -9 17 -10 17 -2 0 7 8 11 18 9 11 -2 16 3 14 12 -1 10 2 9
13 -4 13 -18 15 -18 15 -2 0 11 6 16 18 14 9 -2 16 2 15 8 -1 7 8 9 24 6 14
-3 24 -1 21 4 -4 5 15 10 40 12 25 1 49 7 53 13 4 8 9 7 14 -1 6 -10 11 -9 22
5 7 11 13 15 13 11 0 -5 8 -2 17 5 15 12 16 12 8 -1 -8 -13 -6 -13 8 -2 9 8
21 11 26 8 5 -4 12 -2 16 4 4 6 11 8 16 5 5 -4 9 0 9 7 0 9 3 9 10 -2 8 -12
10 -12 10 -1 0 9 7 11 21 8 14 -4 19 -1 16 7 -3 8 6 12 27 13 67 1 77 3 70 16
-5 7 0 6 11 -3 11 -9 16 -10 11 -2 -6 11 18 18 47 13 4 0 7 5 7 11 0 9 4 8 10
-2 6 -9 10 -11 10 -3 0 7 7 10 17 6 12 -5 14 -3 8 8 -7 11 -5 11 10 -1 10 -8
16 -10 12 -3 -4 6 -3 14 3 18 5 3 10 1 10 -6 0 -8 4 -8 13 -1 12 10 17 12 38
12 5 0 7 6 3 13 -6 9 -4 9 8 -1 10 -8 18 -9 22 -3 4 6 14 7 23 4 10 -4 14 -2
10 4 -5 7 1 9 15 5 16 -4 19 -2 13 9 -8 12 -6 12 8 0 12 -9 17 -10 17 -2 0 7
5 9 10 6 6 -3 10 -2 10 4 0 6 6 8 14 5 8 -3 17 -1 21 5 3 6 12 11 18 11 7 0 6
-4 -3 -10 -9 -6 -10 -10 -3 -10 6 0 15 5 18 10 3 6 17 10 31 10 17 0 23 4 18
13 -4 6 -4 9 1 5 4 -4 14 -3 21 3 8 7 14 6 20 -2 5 -8 3 -9 -6 -4 -9 6 -11 4
-5 -5 6 -10 11 -9 22 5 7 11 13 15 13 9 0 -5 5 -2 10 6 8 13 10 12 10 -4 0
-19 0 -19 13 -1 9 11 19 15 27 10 10 -6 12 -4 7 8 -4 11 -2 14 8 10 8 -3 12
-10 8 -17 -3 -6 3 -3 14 7 23 20 37 22 28 4 -4 -6 3 -1 15 13 12 14 19 19 15
12 -9 -17 13 -15 31 3 9 8 21 15 27 15 8 0 8 -3 -1 -9 -11 -7 -11 -9 2 -14 9
-4 15 -1 13 6 -1 7 6 11 17 9 10 -2 16 1 13 5 -3 5 5 10 18 11 41 3 50 7 57
22 5 12 7 12 7 -2 1 -11 6 -15 15 -12 8 3 12 13 9 22 -3 12 -2 13 4 4 11 -15
59 -9 55 7 -3 15 4 14 22 -5 15 -14 16 -13 17 8 0 13 3 17 6 10 4 -10 8 -10
21 0 12 10 14 10 8 1 -5 -9 -2 -11 8 -7 9 3 13 11 9 18 -4 6 -1 6 9 -2 13 -10
17 -10 22 5 4 10 10 13 14 8 10 -15 35 -18 26 -4 -5 9 -1 10 14 7 14 -4 20 -2
15 5 -4 6 0 8 9 4 9 -3 21 0 27 6 8 8 11 7 11 -4 1 -10 5 -9 15 5 11 15 15 16
16 5 0 -8 4 -6 9 6 5 11 9 14 9 6 1 -10 4 -11 15 -2 11 9 15 9 19 -1 4 -10 6
-10 6 1 1 11 4 11 17 1 12 -11 15 -11 12 1 -2 9 5 14 20 13 12 -1 22 3 22 8 0
5 10 6 21 3 15 -5 19 -4 14 5 -6 9 -3 9 14 1 18 -10 21 -9 21 6 0 14 2 15 9 4
5 -8 11 -9 15 -3 4 6 15 9 26 7 11 -2 20 1 20 7 0 6 7 5 17 -3 11 -10 14 -10
9 -2 -8 14 -6 14 34 17 14 0 31 5 39 10 11 7 12 6 6 -5 -5 -8 2 -5 15 6 13 11
21 15 17 9 -3 -6 0 -11 8 -11 8 0 11 5 8 10 -4 6 3 8 15 5 12 -4 22 -2 22 2 0
5 9 7 20 5 11 -2 22 0 25 5 3 4 14 6 25 3 11 -3 20 0 20 6 0 6 7 8 17 4 11 -5
14 -3 8 6 -6 10 -3 11 13 2 14 -7 23 -8 27 -1 4 6 11 7 17 4 7 -5 9 -1 5 9 -5
14 -3 15 13 5 15 -10 22 -10 32 0 14 14 32 16 23 2 -3 -5 7 -3 22 5 21 11 30
12 42 2 10 -8 13 -8 8 -1 -8 13 19 27 34 18 5 -3 9 0 9 5 0 6 4 11 10 11 5 0
6 -8 3 -17 -5 -14 -2 -13 17 4 17 17 27 20 40 13 13 -7 22 -5 30 5 10 12 16
13 28 3 11 -9 14 -9 9 -1 -4 6 -3 14 3 18 5 3 10 0 10 -7 0 -8 3 -9 8 -3 4 6
18 12 32 13 14 2 31 9 39 15 12 10 13 9 6 -2 -6 -11 -4 -13 9 -8 10 4 20 7 22
7 3 0 3 4 0 8 -2 4 11 6 31 4 26 -3 34 -1 28 8 -6 9 -3 9 15 0 15 -8 20 -8 16
-1 -7 10 5 13 72 14 12 1 21 6 18 12 -2 6 4 11 14 11 10 0 16 -4 13 -9 -3 -5
4 -4 14 2 11 6 23 7 27 3 4 -3 11 0 17 8 8 13 10 13 19 0 8 -12 10 -12 10 5 0
16 2 17 10 5 8 -12 10 -12 16 3 3 9 11 17 16 17 6 0 7 -8 4 -17 -6 -15 -5 -15
13 1 10 10 28 17 38 16 34 -4 44 0 37 13 -5 7 0 6 11 -3 10 -8 16 -10 12 -3
-5 7 -1 12 10 12 38 1 89 7 98 12 6 3 23 6 39 7 17 1 33 8 38 15 6 9 8 9 8 -1
0 -8 5 -10 13 -5 14 9 39 13 88 16 20 1 44 9 55 17 10 9 15 10 10 3 -4 -7 -3
-13 3 -13 5 0 12 4 16 9 3 5 17 8 30 5 14 -2 25 -1 25 4 0 4 12 8 28 7 15 0
30 4 34 10 5 6 8 5 8 -3 0 -10 4 -10 16 2 11 12 20 13 34 6 11 -6 21 -6 24 -1
3 5 19 8 35 7 17 -1 27 2 24 8 -4 5 1 7 10 3 9 -3 19 -2 23 4 4 7 10 6 19 -1
9 -8 14 -8 17 1 2 6 22 12 43 13 22 1 45 4 50 7 6 4 20 5 33 4 12 -1 22 2 22
7 0 5 4 7 9 4 5 -4 12 0 14 6 4 10 6 10 6 0 1 -10 6 -10 22 -1 15 8 19 8 15 0
-4 -6 -2 -11 3 -11 6 0 11 5 11 11 0 5 5 7 10 4 6 -3 10 -1 10 6 0 8 5 7 17
-2 14 -12 16 -12 9 0 -6 9 -5 12 5 9 8 -3 22 -1 32 4 11 6 17 5 17 -3 0 -8 4
-8 15 1 8 7 15 9 15 4 0 -4 5 -3 12 4 8 8 16 8 32 0 18 -9 19 -9 9 3 -9 12 -4
14 35 14 58 -1 74 4 65 19 -3 6 -1 6 8 -2 14 -13 33 -17 25 -4 -2 4 10 8 27 9
48 3 82 9 97 18 9 6 11 4 5 -6 -7 -11 -6 -12 7 -2 8 7 18 10 21 6 4 -3 7 -2 7
3 0 5 21 9 48 9 26 0 52 3 58 7 6 5 23 9 38 10 14 1 26 7 26 13 0 5 5 3 10 -5
6 -9 13 -11 18 -5 4 6 16 11 27 12 11 1 43 5 70 9 28 4 65 7 82 8 18 1 33 4
33 7 0 3 11 5 25 4 14 -2 28 1 31 6 3 6 11 5 20 -2 9 -7 14 -8 14 -1 0 6 8 11
18 10 20 0 101 8 157 17 22 3 55 8 73 10 18 2 37 7 42 10 5 3 12 1 15 -5 5 -8
11 -8 20 0 7 6 17 10 21 9 5 -1 11 -1 14 0 8 4 102 13 137 15 18 0 33 3 33 7
0 3 18 5 40 4 22 -1 40 2 40 5 0 3 10 6 23 7 55 2 93 7 110 15 12 6 17 5 17
-4 0 -8 3 -9 8 -3 4 6 21 11 37 12 17 1 44 4 60 7 17 3 55 7 85 10 102 11 110
13 117 19 3 4 12 2 20 -4 10 -9 13 -8 13 1 0 7 8 10 20 7 11 -3 20 -2 20 2 0
3 17 6 38 6 20 -1 42 1 47 4 6 3 33 7 60 8 28 2 64 5 80 8 31 6 66 10 195 20
41 4 95 8 120 10 25 3 72 7 105 9 33 3 60 5 60 6 0 1 65 7 161 13 28 2 57 7
64 12 9 6 11 4 5 -5 -5 -9 -4 -11 3 -6 11 7 34 10 172 21 185 15 219 17 262
19 27 0 48 3 48 7 0 3 21 5 48 6 26 0 74 4 107 7 78 9 192 17 277 19 38 1 68
4 68 7 0 3 35 5 78 6 90 1 401 13 494 19 34 2 142 7 238 11 96 3 204 7 240 9
36 1 137 6 225 10 207 9 1772 10 1975 0 85 -4 193 -8 240 -10 99 -3 330 -13
480 -21 58 -2 161 -7 230 -10 69 -2 177 -7 240 -10 63 -2 145 -6 182 -7 38 -1
68 -4 68 -7 0 -3 26 -6 58 -7 31 -1 93 -5 137 -8 44 -4 98 -8 120 -10 22 -1
40 -4 40 -5 0 -1 23 -3 50 -4 78 -5 204 -16 265 -23 30 -3 69 -6 85 -6 17 0
33 -5 37 -11 5 -7 8 -7 8 2 0 7 5 10 10 7 6 -4 43 -9 83 -11 40 -2 90 -6 112
-9 22 -2 81 -7 130 -11 89 -6 150 -11 150 -14 0 -1 127 -11 183 -13 17 -1 32
-6 32 -11 0 -6 5 -5 12 2 6 6 17 8 27 3 9 -5 24 -7 33 -6 10 2 20 0 22 -4 3
-4 20 -6 38 -5 18 1 39 -2 45 -8 9 -8 13 -7 13 3 0 9 3 10 8 4 4 -6 25 -12 46
-14 49 -4 73 -8 86 -16 6 -3 10 -1 10 5 0 6 5 8 13 3 6 -4 34 -9 62 -11 27 -2
53 -9 57 -15 6 -9 8 -8 8 1 0 8 5 10 12 6 7 -4 24 -9 38 -10 14 -2 48 -5 75
-9 28 -3 65 -7 83 -8 17 -1 32 -4 32 -7 0 -4 15 -5 32 -4 18 1 39 -3 47 -9 12
-10 13 -9 6 2 -6 10 -4 12 6 6 7 -5 22 -10 34 -11 11 -1 40 -5 65 -8 70 -10
142 -17 173 -19 15 0 27 -3 27 -6 0 -3 21 -7 48 -8 82 -4 92 -5 92 -12 0 -3
33 -7 72 -9 43 -1 75 -7 80 -15 6 -9 8 -9 8 1 0 9 6 10 18 4 9 -4 24 -8 32 -7
8 0 18 -4 22 -10 5 -7 8 -6 8 1 0 8 11 9 37 4 20 -5 39 -8 42 -8 3 0 8 -1 11
-2 7 -3 50 -8 93 -11 20 -2 37 -6 37 -11 0 -4 14 -6 30 -4 17 2 30 -1 30 -7 0
-5 8 -3 17 4 9 8 14 9 10 3 -9 -16 28 -25 42 -11 8 8 11 7 11 -2 0 -8 7 -11
20 -8 11 3 20 1 20 -3 0 -4 9 -6 20 -3 11 3 20 0 20 -6 0 -8 5 -9 19 -1 13 7
22 7 26 0 3 -5 17 -10 31 -10 14 0 35 -5 46 -11 16 -9 19 -8 13 2 -5 8 -4 10
4 5 11 -7 45 -15 86 -21 11 -1 20 -3 20 -5 0 -2 36 -7 83 -11 17 -2 32 -8 32
-14 0 -5 5 -3 10 5 5 8 10 10 10 4 0 -6 6 -11 13 -12 6 0 29 -2 49 -3 24 -1
35 -6 31 -13 -4 -6 1 -5 10 3 11 9 17 10 17 2 0 -6 13 -11 29 -11 16 0 32 -6
34 -12 4 -10 6 -10 6 0 1 13 31 17 31 4 0 -5 15 -9 33 -10 58 -1 100 -11 108
-24 7 -10 9 -10 9 0 0 10 5 10 20 2 15 -8 20 -8 20 2 0 10 3 10 9 -1 5 -8 16
-11 25 -8 9 4 16 3 16 -1 0 -4 17 -9 37 -10 21 -2 41 -8 45 -15 6 -9 8 -9 8 1
0 7 5 10 10 7 10 -6 22 -9 91 -19 20 -3 44 -9 54 -12 14 -6 16 -4 10 7 -7 11
-6 12 6 2 9 -7 25 -14 37 -16 12 -2 25 -6 28 -10 4 -4 13 -2 21 4 10 9 13 8
13 -1 0 -7 8 -10 20 -7 10 3 24 -1 31 -9 6 -8 16 -11 22 -7 18 11 47 11 40 0
-4 -6 3 -8 15 -5 12 4 22 2 22 -4 0 -5 5 -6 11 -2 6 3 15 0 20 -7 7 -12 9 -12
9 0 0 11 3 11 16 0 9 -7 30 -13 47 -14 18 0 38 -4 45 -8 6 -5 12 -5 12 -1 0 3
8 0 17 -7 11 -9 14 -10 9 -2 -5 9 -2 11 8 7 9 -3 16 -11 16 -18 0 -6 5 -4 10
4 8 12 10 12 10 1 0 -11 3 -11 17 0 11 10 14 10 9 1 -5 -8 2 -12 23 -12 18 0
31 -5 31 -12 0 -9 4 -8 10 2 6 9 10 11 10 3 0 -7 7 -10 17 -6 10 4 14 2 10 -4
-5 -7 0 -9 13 -6 11 3 28 -1 37 -8 14 -12 16 -12 8 0 -6 11 -5 12 6 5 14 -9
34 -14 57 -16 6 -1 12 -6 12 -11 0 -5 7 -4 15 3 9 7 15 8 15 2 0 -6 11 -9 25
-7 14 1 25 -2 25 -7 0 -5 5 -6 10 -3 6 3 10 1 10 -5 0 -7 6 -8 19 -1 14 8 22
7 32 -5 10 -12 14 -12 20 -2 7 11 9 11 9 0 0 -7 4 -10 10 -7 5 3 10 0 10 -7 0
-9 3 -9 10 2 8 12 10 12 11 -5 0 -11 3 -15 5 -8 4 8 14 9 34 3 16 -4 31 -6 34
-2 3 3 6 0 6 -6 0 -7 5 -12 11 -12 5 0 7 6 3 13 -4 6 3 3 16 -8 13 -11 20 -14
15 -6 -6 10 -4 12 6 5 8 -5 22 -7 32 -6 9 2 17 -1 17 -6 0 -6 7 -13 16 -16 8
-3 12 -2 9 4 -3 6 -1 10 4 10 6 0 11 -4 11 -10 0 -5 5 -10 11 -10 5 0 7 6 3
12 -6 10 -5 10 8 1 8 -7 18 -10 21 -6 4 3 7 1 7 -5 0 -6 9 -9 20 -7 13 3 20
-2 21 -13 0 -15 1 -14 8 2 7 17 8 17 23 2 10 -10 19 -12 23 -6 6 9 12 8 61
-17 14 -8 26 -8 39 -1 13 8 16 7 11 -1 -5 -7 2 -11 18 -12 25 -1 43 -5 49 -8
2 -3 66 -13 85 -14 6 0 12 -3 12 -7 0 -4 14 -7 31 -8 17 0 36 -5 43 -11 9 -7
16 -7 24 1 9 9 12 9 12 1 0 -7 8 -12 18 -12 14 -1 67 -6 95 -10 5 -1 5 -6 1
-12 -4 -8 1 -9 16 -4 14 4 20 3 16 -3 -3 -5 0 -10 7 -9 46 1 68 -4 61 -15 -6
-10 -4 -10 8 0 13 10 17 10 21 0 4 -10 6 -9 6 1 1 11 5 10 17 -5 8 -10 12 -12
8 -4 -7 13 -5 13 9 2 9 -8 21 -11 27 -7 5 3 10 1 10 -4 0 -6 16 -11 35 -11 19
0 35 -4 35 -8 0 -7 24 -12 68 -15 6 0 12 -5 12 -10 0 -5 8 -3 17 4 11 10 14
10 9 2 -5 -9 0 -13 14 -13 12 0 19 -4 16 -8 -3 -5 1 -9 9 -9 8 0 11 5 8 11 -4
6 2 4 13 -5 10 -8 31 -14 47 -13 15 2 27 -2 27 -8 0 -6 9 -8 20 -5 11 3 27 -1
34 -9 18 -17 30 -18 20 -1 -5 8 -3 8 9 -2 9 -7 26 -11 37 -8 11 3 18 1 15 -3
-3 -5 -1 -11 5 -15 5 -3 10 -1 10 5 0 7 7 5 16 -4 18 -19 28 -21 18 -5 -4 7
-1 10 7 7 8 -3 13 -10 12 -15 -2 -13 40 -11 49 2 5 6 8 3 8 -7 0 -11 6 -15 20
-11 11 3 20 1 20 -5 0 -5 16 -9 36 -8 20 1 38 -3 41 -8 4 -5 1 -6 -7 -1 -9 5
-11 4 -6 -4 6 -9 11 -9 22 0 11 9 14 8 14 -7 0 -16 2 -17 10 -4 8 12 10 12 10
1 0 -11 3 -11 16 -1 8 8 14 9 13 4 -4 -21 2 -26 16 -14 8 7 15 8 15 3 0 -5 10
-9 22 -10 11 -1 25 -8 29 -15 5 -7 9 -9 9 -4 0 5 8 2 17 -5 11 -10 14 -10 9
-1 -4 6 -2 12 3 12 6 0 11 -6 11 -12 0 -9 4 -8 10 2 8 13 10 12 10 -4 0 -16 3
-17 12 -8 15 15 31 16 22 1 -5 -8 1 -10 20 -7 18 4 26 2 23 -6 -3 -7 6 -12 22
-13 52 -3 76 -8 83 -18 5 -6 8 -4 8 4 0 11 4 10 16 -5 8 -10 13 -13 9 -7 -4 9
-1 11 9 7 9 -3 13 -11 9 -18 -4 -6 2 -4 12 4 10 8 16 10 12 4 -4 -7 0 -15 9
-18 12 -5 15 -2 10 11 -6 15 -5 15 13 -1 11 -10 25 -15 30 -11 6 3 11 1 11 -5
0 -6 5 -8 11 -5 5 4 20 -1 32 -12 19 -16 20 -16 8 0 -12 15 -12 17 3 11 9 -3
16 -11 16 -18 0 -6 5 -4 10 4 7 12 10 12 10 1 0 -7 6 -11 14 -8 8 3 17 3 21
-1 4 -4 10 -7 13 -8 27 -2 72 -17 72 -24 0 -4 7 -10 14 -13 11 -4 13 -1 10 11
-5 15 -4 15 8 2 7 -9 21 -14 31 -12 9 2 17 -1 17 -7 0 -6 7 -8 15 -5 9 4 18
-1 21 -11 5 -13 9 -14 15 -3 7 11 10 10 21 -1 11 -11 11 -13 -1 -6 -8 5 -12 4
-8 -2 3 -5 20 -8 36 -7 17 1 31 -2 31 -6 0 -5 11 -7 25 -5 14 1 25 -2 25 -7 0
-5 4 -6 10 -3 5 3 10 2 10 -3 0 -5 7 -9 15 -10 8 -1 22 -3 30 -4 8 -1 15 -6
15 -11 0 -5 8 -3 17 4 11 10 14 10 9 2 -5 -9 0 -13 14 -13 14 0 19 -4 14 -12
-5 -9 -2 -9 9 1 16 12 22 8 18 -12 -1 -5 3 -6 9 -2 6 4 18 1 27 -7 12 -9 15
-9 9 0 -4 6 -2 12 3 12 6 0 11 -4 11 -8 0 -7 15 -11 57 -14 7 -1 14 -7 17 -14
3 -7 14 -10 27 -7 17 5 20 3 14 -8 -8 -12 -6 -12 8 0 16 13 22 8 18 -13 -1 -5
4 -4 13 3 11 9 16 9 22 0 5 -8 3 -9 -6 -4 -9 5 -11 4 -6 -4 6 -9 11 -9 22 0
11 9 14 9 14 -1 0 -8 3 -10 7 -7 3 4 17 0 29 -8 14 -9 24 -10 26 -4 2 5 13 1
26 -11 12 -11 22 -17 22 -12 0 5 7 9 15 9 8 0 15 -5 15 -10 0 -5 9 -7 21 -4
13 3 26 -1 36 -13 12 -14 22 -16 44 -10 24 7 27 6 24 -12 -4 -16 -2 -18 10 -8
12 10 15 9 16 -6 0 -18 1 -18 9 1 5 11 9 14 9 7 1 -7 5 -11 10 -7 5 3 12 1 16
-5 4 -6 11 -8 16 -5 5 4 9 -1 9 -10 0 -15 1 -15 16 -1 20 20 25 20 17 0 -5
-14 -3 -15 18 -4 23 13 23 12 9 -5 -11 -14 -11 -17 -1 -11 8 5 17 3 22 -5 7
-11 9 -11 9 -1 0 8 5 10 13 5 6 -4 21 -9 32 -10 11 -2 22 -8 23 -14 3 -6 9 -6
18 2 11 9 15 8 20 -5 3 -9 10 -16 16 -16 5 0 6 6 3 12 -4 7 0 5 8 -4 8 -10 17
-15 21 -11 4 4 11 1 16 -7 7 -11 10 -12 10 -2 0 7 5 10 10 7 6 -4 8 -11 5 -16
-4 -5 -2 -9 4 -9 5 0 12 6 14 13 4 9 6 9 6 0 1 -7 12 -13 26 -13 14 0 25 -6
25 -12 0 -9 4 -8 10 2 7 11 10 11 10 2 0 -7 4 -11 9 -7 5 3 12 1 16 -4 3 -6
13 -7 22 -4 10 4 14 2 10 -4 -3 -5 0 -10 8 -10 8 0 15 5 15 11 0 6 4 5 9 -2 6
-10 35 -14 107 -13 126 1 136 2 152 14 8 6 12 5 12 -4 0 -8 6 -6 16 7 8 10 13
13 9 7 -3 -7 -1 -13 4 -13 6 0 11 5 11 11 0 8 5 7 15 -1 13 -11 14 -10 10 2
-5 12 1 16 21 16 14 0 30 5 34 12 4 7 13 9 19 6 6 -4 11 -2 11 4 0 7 7 10 15
6 8 -3 15 -1 15 5 0 5 8 13 18 16 9 4 23 14 30 22 8 9 11 10 7 4 -4 -9 -1 -11
9 -7 9 3 13 11 9 17 -4 6 0 8 9 4 11 -4 18 1 21 15 4 13 11 19 21 15 11 -4 13
-1 9 10 -4 10 -2 14 4 10 6 -4 14 0 17 9 3 9 11 12 18 8 9 -5 8 -2 -1 9 -12
15 -12 17 3 11 9 -3 16 -1 16 5 0 6 6 10 13 9 6 -2 11 3 9 10 -1 6 3 12 9 12
5 0 8 4 5 9 -3 5 6 17 19 27 14 10 30 33 36 51 6 19 15 30 21 27 6 -4 8 1 3
15 -4 13 -2 21 5 21 6 0 8 5 5 10 -3 6 2 10 12 10 14 0 15 2 4 9 -10 6 -10 10
-1 16 6 4 9 14 6 22 -3 8 -2 12 3 8 7 -4 17 29 26 85 0 3 4 10 8 17 4 6 1 14
-5 16 -10 4 -10 6 -1 6 10 1 13 501 14 2424 0 1332 1 2428 2 2435 0 6 4 12 9
12 4 0 7 6 5 13 -1 6 6 11 15 11 10 -1 14 4 11 13 -3 8 4 23 16 34 20 18 25
32 22 52 -1 5 3 6 9 2 9 -6 15 8 11 29 -1 5 5 4 13 -3 13 -11 15 -10 11 8 -2
13 1 21 10 21 8 0 12 6 9 14 -3 8 3 20 14 27 12 7 18 19 14 27 -3 9 -1 13 4 9
6 -3 18 7 28 24 9 16 14 29 11 29 -4 0 1 7 9 16 9 8 21 12 28 8 9 -6 9 -3 -1
9 -9 11 -10 17 -2 17 6 0 10 6 8 13 -1 6 4 11 11 9 8 -1 11 2 7 8 -3 5 -1 10
5 10 6 0 9 4 5 9 -3 6 1 13 9 18 14 8 16 12 16 34 0 5 5 7 12 3 7 -5 9 -2 6 7
-6 15 15 41 26 33 3 -2 4 -1 1 2 -7 10 24 64 36 64 6 0 9 7 5 15 -3 10 1 15
12 16 10 0 12 3 5 6 -10 3 -10 7 0 18 7 7 16 10 21 7 5 -3 7 2 3 11 -3 10 -2
17 3 17 6 0 10 9 10 19 0 11 5 23 12 27 7 5 8 3 3 -6 -5 -9 -4 -11 3 -6 7 4
12 19 12 33 0 19 4 24 16 19 8 -3 13 -2 9 3 -3 5 1 15 8 23 8 7 12 19 9 26 -2
6 3 15 12 18 9 3 13 10 10 15 -3 5 0 9 6 9 7 0 9 7 6 16 -6 15 -4 15 11 3 10
-8 14 -9 10 -2 -9 15 27 85 38 75 4 -4 5 3 2 16 -3 15 -1 22 10 22 9 0 13 6 9
15 -3 9 0 15 9 15 9 0 12 6 8 17 -4 11 -3 14 5 9 7 -4 13 -2 13 3 1 6 2 17 3
24 1 6 7 11 14 10 7 -2 9 4 5 13 -4 10 1 20 10 26 10 5 17 16 17 23 0 8 4 15
9 15 9 0 24 38 22 54 -1 5 5 6 14 2 13 -4 14 -2 5 14 -9 16 -8 20 5 20 8 0 14
3 14 8 -3 20 2 32 13 26 6 -4 8 -3 4 4 -3 6 1 18 10 26 8 9 12 16 7 16 -4 0 1
7 11 15 13 10 15 15 6 15 -10 0 -9 4 4 13 9 7 18 23 19 35 1 14 6 21 14 18 7
-3 12 -2 12 2 -4 18 14 71 22 66 5 -3 9 2 9 10 0 9 5 16 12 16 6 0 9 3 5 6 -8
8 21 64 33 64 5 0 7 7 4 15 -4 8 -1 15 5 15 6 0 10 6 8 12 -1 7 3 12 9 11 6
-1 10 8 10 20 -1 12 4 21 11 20 7 -2 10 6 8 17 -2 11 3 24 12 28 8 5 15 11 14
13 -2 13 13 49 20 49 5 0 8 6 6 13 -1 6 3 11 10 10 7 -2 10 4 7 12 -4 9 -1 22
6 30 6 8 9 19 5 25 -3 5 1 13 9 16 8 3 21 21 28 40 6 19 15 34 18 34 3 0 6 10
7 22 1 12 9 26 18 30 8 5 15 18 15 29 0 11 4 18 9 15 5 -4 8 2 7 11 -2 10 5
24 16 31 10 7 16 18 12 23 -3 5 0 16 6 24 6 8 9 18 6 23 -3 4 5 19 17 33 12
13 24 33 25 44 2 11 8 22 13 23 5 2 7 7 4 12 -3 5 3 16 12 26 10 10 16 18 14
18 -8 2 11 46 19 46 5 0 7 7 4 15 -4 8 1 17 9 21 9 3 13 12 10 21 -4 11 -2 14
5 9 7 -4 10 1 7 14 -2 11 1 20 6 20 6 0 8 4 4 9 -3 5 -1 12 4 15 5 4 17 29 26
56 9 28 21 50 27 50 6 0 8 3 5 6 -4 4 3 20 15 37 12 17 17 27 10 23 -8 -5 -10
-2 -6 8 3 9 10 13 15 10 5 -3 6 2 2 11 -3 10 -1 20 6 24 7 4 13 17 14 29 0 11
5 18 9 16 4 -3 8 4 8 16 0 12 4 19 9 16 4 -3 7 6 5 19 -1 14 2 25 8 25 6 0 8
7 4 15 -3 9 3 19 15 25 11 6 17 15 14 20 -3 4 -1 19 4 32 5 12 10 28 11 33 2
6 10 15 19 22 14 11 14 12 1 13 -13 1 -13 2 1 13 20 16 34 51 16 42 -6 -4 -5
-1 4 7 16 13 19 19 19 39 0 5 6 7 13 3 9 -5 9 -4 0 6 -10 11 -9 16 5 27 10 9
11 12 2 7 -12 -7 -13 -5 -3 8 7 8 10 18 6 21 -3 4 -1 7 5 7 7 0 12 7 12 15 0
8 5 15 11 15 5 0 7 5 4 10 -4 6 -1 18 7 27 7 9 8 14 2 10 -6 -3 -4 9 5 27 10
20 19 29 23 22 6 -8 8 -8 8 1 0 6 -5 15 -10 18 -6 4 -4 12 5 22 9 8 14 20 12
27 -2 6 3 17 12 24 13 11 13 12 1 6 -11 -6 -10 -2 3 13 9 11 14 23 10 26 -3 4
0 7 8 7 11 0 11 2 -1 10 -11 7 -12 10 -2 10 8 0 12 6 10 12 -3 7 1 19 9 26 7
8 11 18 8 23 -4 5 -1 9 6 9 7 0 9 3 6 7 -4 3 -1 13 6 21 10 13 9 15 -3 8 -8
-4 -6 0 4 8 15 12 16 16 5 16 -11 1 -10 3 3 10 9 6 15 20 14 34 -2 15 3 27 11
31 9 3 13 12 9 20 -3 8 3 19 12 24 10 6 12 11 4 11 -10 0 -10 5 -2 20 6 11 8
26 4 33 -6 9 -4 9 7 0 14 -11 16 -8 14 18 -1 19 4 33 12 36 12 5 12 7 1 14
-10 7 -11 9 0 9 7 0 10 5 7 10 -3 6 -2 10 4 10 6 0 8 7 5 15 -4 8 -1 15 6 15
9 0 9 4 -1 17 -10 11 -10 14 -1 9 6 -4 12 -2 12 3 0 20 3 26 19 39 9 8 10 11
4 7 -7 -3 -13 -1 -13 4 0 6 5 11 11 11 5 0 7 5 4 11 -4 6 1 17 11 25 18 13 18
14 -1 8 -20 -6 -20 -5 -1 10 11 9 16 16 12 16 -5 0 -2 8 5 17 12 15 12 16 -1
8 -12 -7 -13 -6 -3 6 6 8 13 27 15 42 3 16 11 33 19 38 8 5 10 9 4 9 -5 0 -3
5 5 10 9 6 10 10 3 10 -8 0 -7 9 3 30 9 16 12 35 8 41 -5 8 -3 9 6 4 10 -6 12
-3 8 13 -4 12 -2 22 4 22 6 0 7 7 4 16 -3 8 -2 12 4 9 5 -3 9 3 9 12 1 36 8
65 17 71 5 4 9 13 10 20 3 39 5 43 17 36 8 -5 8 -2 -2 9 -9 12 -10 17 -2 17 7
0 9 5 6 10 -3 6 0 10 7 10 9 0 9 3 -2 10 -10 6 -11 10 -2 10 7 0 12 13 12 31
0 16 4 28 9 25 5 -4 8 6 6 20 -1 15 3 28 11 31 21 8 17 26 -3 19 -15 -5 -15
-4 1 9 11 8 17 15 13 15 -4 0 -1 15 7 34 11 26 11 37 3 46 -9 8 -8 10 4 5 13
-5 17 0 18 17 2 48 6 68 13 68 4 0 4 7 1 17 -5 12 -3 14 8 8 11 -7 11 -5 -1
10 -9 11 -10 16 -2 11 8 -5 12 0 13 13 2 33 4 39 11 46 4 4 4 13 1 21 -3 8 0
14 6 14 6 0 11 5 11 11 0 5 -6 7 -12 3 -7 -4 -4 3 7 16 11 13 14 20 7 16 -12
-7 -12 -4 -1 15 7 13 12 28 11 33 -2 4 3 15 10 24 10 12 10 14 1 8 -9 -5 -11
-2 -7 8 3 9 11 16 18 16 6 0 4 5 -4 10 -8 5 -10 10 -4 10 7 0 15 7 18 16 3 8
2 13 -2 10 -5 -3 -9 1 -9 9 0 8 5 11 10 8 6 -4 8 0 4 10 -4 10 -1 17 6 17 8 0
6 4 -3 10 -14 9 -7 15 14 11 5 -1 4 4 -3 13 -8 10 -9 16 -1 21 6 3 8 11 5 16
-4 5 2 9 12 9 15 0 15 2 4 9 -12 8 -12 12 -2 25 9 11 10 16 2 16 -6 0 -11 5
-11 11 0 5 5 7 11 3 9 -5 10 1 5 20 -4 17 -3 25 3 22 5 -4 10 2 11 11 1 44 5
63 11 63 4 0 5 10 1 22 -3 13 -1 19 6 15 6 -5 9 2 7 18 -1 14 1 25 4 25 4 0 6
18 6 41 0 22 4 43 9 46 5 4 6 1 1 -7 -5 -8 -4 -11 3 -6 6 4 9 13 5 21 -3 9 0
22 7 30 10 12 10 15 0 15 -10 0 -10 3 0 15 6 8 9 19 5 25 -3 5 -1 10 5 10 6 0
8 5 5 10 -4 6 -1 18 7 27 11 14 11 16 -1 8 -11 -6 -12 -5 -5 6 5 8 9 23 9 34
1 11 7 31 14 44 9 17 10 21 1 16 -9 -6 -9 -3 -2 11 6 11 10 22 11 27 1 4 1 8
2 10 2 4 9 62 10 85 1 12 5 22 9 22 4 0 6 12 4 27 -1 15 1 32 5 38 5 5 8 17 9
25 0 8 3 31 6 50 4 19 8 45 9 57 2 12 6 25 9 28 4 4 4 13 2 20 -3 7 0 16 5 20
6 3 8 12 4 18 -11 18 -12 37 -3 37 5 0 9 8 9 18 0 28 17 127 21 127 1 0 3 16
4 35 1 19 4 40 7 45 3 6 5 22 4 38 -1 15 2 27 8 27 5 0 4 7 -3 15 -10 12 -10
15 0 15 7 0 10 6 7 14 -3 8 -1 17 6 20 9 3 8 5 -1 5 -7 1 -10 6 -7 12 8 13 18
64 19 102 1 15 5 27 9 27 5 0 5 5 2 10 -4 6 -1 18 7 27 11 14 11 16 -1 9 -10
-7 -11 -3 -5 15 4 13 7 34 6 46 -1 12 3 34 8 48 7 17 6 25 -1 25 -8 0 -8 4 -1
13 6 7 11 22 10 32 0 11 3 49 7 85 11 90 13 105 15 105 1 0 3 11 4 25 0 14 5
31 10 39 7 10 6 12 -4 6 -9 -6 -10 -2 -5 16 4 13 9 46 10 74 2 27 4 50 5 50 1
0 2 23 4 50 1 28 5 55 9 62 4 6 3 14 -3 18 -6 4 -7 12 -3 18 4 7 8 21 9 32 14
177 23 325 28 437 2 47 7 91 10 96 4 6 2 13 -3 16 -4 3 -5 25 -1 48 11 58 10
1388 -1 1388 -5 0 -4 11 1 24 5 13 6 26 3 29 -3 3 -7 41 -9 84 -5 114 -13 247
-20 333 -3 41 -7 99 -7 127 -1 29 -4 53 -7 53 -3 0 -6 15 -6 33 -1 44 -20 255
-30 332 -3 22 -7 69 -10 105 -4 36 -11 73 -16 84 -8 14 -7 17 3 11 9 -6 10 -3
4 11 -7 17 -10 37 -18 124 -1 14 -6 31 -10 38 -5 7 -3 12 5 12 8 0 9 3 2 8 -5
4 -10 17 -11 30 0 12 -2 23 -3 25 -3 3 -9 50 -14 103 -2 23 -6 46 -8 50 -3 5
-5 21 -4 37 1 15 -1 27 -4 27 -3 0 -6 10 -7 23 -1 27 -7 59 -14 72 -3 6 -5 31
-4 57 0 25 -4 44 -9 40 -5 -3 -7 2 -3 11 4 10 1 17 -6 17 -8 0 -6 4 3 10 8 5
10 10 5 10 -6 0 -11 10 -12 23 -2 56 -11 99 -23 107 -10 6 -10 8 1 12 8 3 10
9 4 19 -5 8 -8 22 -7 32 2 9 -2 17 -8 17 -8 0 -7 6 1 21 6 12 7 19 1 15 -5 -3
-12 3 -15 14 -3 13 -1 18 5 13 7 -4 8 -1 2 8 -5 8 -9 23 -9 34 0 11 -4 25 -7
31 -4 6 -8 27 -10 47 -1 21 -7 37 -12 37 -6 0 -5 5 1 11 9 9 8 17 -1 33 -8 11
-13 31 -11 44 1 12 -2 22 -7 22 -5 0 -6 5 -2 11 3 6 0 15 -7 20 -11 7 -11 9
-1 9 10 0 10 5 2 20 -6 11 -8 25 -5 30 3 6 2 10 -4 10 -6 0 -7 7 -4 17 4 9 2
14 -3 10 -7 -4 -9 6 -6 25 3 21 1 29 -7 24 -14 -9 -14 0 -1 25 6 11 7 19 3 18
-20 -3 -27 2 -13 11 9 6 11 10 3 10 -7 0 -10 7 -7 15 4 9 0 15 -7 15 -11 0
-11 3 1 10 8 5 10 10 4 10 -11 0 -13 7 -16 55 -1 14 -7 25 -12 25 -6 0 -4 5 4
10 12 8 12 10 -5 11 -12 0 -15 3 -7 6 10 4 9 9 -5 20 -10 8 -12 12 -5 8 7 -4
12 0 12 9 0 9 -5 16 -11 16 -6 0 -8 8 -5 18 4 10 0 27 -8 37 -10 14 -11 24 -4
32 7 9 7 13 -1 13 -6 0 -11 9 -11 20 0 11 -6 20 -12 20 -9 0 -9 3 1 9 12 7 12
13 3 24 -7 7 -9 17 -5 20 3 4 0 7 -8 7 -11 0 -11 2 1 10 9 6 11 10 3 10 -7 0
-10 7 -6 17 4 11 3 14 -5 9 -15 -9 -15 -1 -2 24 9 16 8 18 -5 14 -11 -5 -14
-2 -8 12 5 13 3 15 -8 9 -12 -8 -12 -6 0 8 8 11 9 17 3 17 -7 0 -9 7 -5 17 5
12 3 14 -7 8 -9 -6 -11 -4 -5 5 4 7 2 16 -6 21 -12 7 -12 9 0 9 9 0 10 4 4 13
-6 6 -10 25 -9 40 1 16 -3 31 -8 34 -5 4 -6 1 -1 -7 5 -8 4 -11 -3 -6 -6 4 -9
13 -5 21 3 8 1 15 -5 15 -6 0 -8 9 -5 20 3 12 0 20 -7 20 -9 0 -10 3 -1 14 9
10 8 16 -4 26 -8 7 -12 17 -9 22 4 6 0 14 -7 19 -11 7 -11 9 -1 9 10 0 10 4
-2 15 -8 8 -13 24 -11 35 2 11 0 20 -6 20 -5 0 -9 11 -9 25 0 14 -6 25 -12 25
-9 0 -8 4 2 10 13 9 13 10 0 10 -13 0 -13 1 0 10 13 9 7 14 -12 11 -4 0 -5 6
-2 14 4 9 0 15 -7 15 -11 0 -11 3 1 10 10 6 11 10 3 10 -7 0 -13 11 -13 24 0
14 -5 28 -11 32 -6 3 -9 15 -6 25 3 11 1 19 -5 19 -5 0 -6 5 -3 10 4 6 1 17
-5 25 -7 8 -10 21 -7 29 3 8 -1 17 -9 20 -8 3 -14 10 -14 16 0 6 4 8 10 5 6
-3 7 1 4 9 -3 9 -11 13 -16 10 -6 -4 -8 2 -3 15 4 14 2 21 -6 21 -7 0 -9 3 -6
7 4 3 1 13 -6 21 -9 13 -9 14 0 8 9 -5 11 -2 7 8 -3 9 -10 16 -15 16 -4 0 -5
7 -2 17 5 11 3 14 -6 8 -10 -6 -11 -3 -2 14 9 17 9 21 -1 19 -8 -2 -13 6 -12
20 0 14 -5 22 -15 22 -14 0 -14 2 -2 9 12 7 12 13 3 24 -7 7 -9 17 -5 20 3 4
0 7 -8 7 -11 0 -11 2 1 10 13 8 12 10 -4 10 -13 0 -17 5 -13 20 3 11 1 20 -3
20 -5 0 -7 9 -5 20 2 12 -2 20 -10 20 -8 0 -11 7 -8 20 3 11 0 20 -6 20 -6 0
-11 5 -11 11 0 5 5 7 11 4 6 -4 5 2 -3 14 -7 12 -17 21 -23 21 -5 0 -3 5 5 10
10 6 11 10 3 10 -7 0 -13 9 -13 20 0 11 -5 20 -11 20 -8 0 -7 6 2 17 10 11 10
14 2 9 -9 -5 -13 0 -13 18 0 14 -4 28 -10 31 -5 3 -10 17 -10 31 0 17 -4 23
-12 18 -8 -5 -9 -2 -5 9 3 10 2 17 -3 17 -6 0 -10 5 -10 11 0 5 6 7 13 3 6 -4
4 2 -7 14 -10 12 -18 33 -18 46 0 14 -4 23 -9 20 -8 -5 -12 13 -12 58 0 9 -5
14 -13 11 -8 -3 -12 4 -10 21 2 14 -1 26 -5 26 -5 0 -9 7 -9 15 0 8 -6 15 -12
15 -9 0 -8 4 2 10 10 6 11 10 3 10 -7 0 -13 9 -13 20 0 11 -4 20 -10 20 -5 0
-10 13 -10 29 0 16 -7 34 -15 41 -9 7 -14 19 -11 26 3 8 -3 18 -12 23 -13 8
-13 10 -3 11 11 0 10 4 -5 16 -10 8 -12 12 -4 8 11 -5 10 -2 -3 13 -11 12 -15
27 -11 38 5 13 4 16 -4 11 -7 -4 -13 0 -14 11 -3 42 -17 75 -28 68 -4 -2 -6 7
-4 20 1 17 -3 25 -13 25 -13 0 -13 2 -2 17 10 11 10 14 2 9 -9 -5 -13 0 -13
13 0 11 -6 26 -13 33 -8 7 -12 20 -9 30 2 10 -1 18 -7 18 -7 0 -9 5 -6 10 3 6
1 10 -5 10 -7 0 -9 7 -6 15 3 9 -1 18 -8 21 -8 3 -17 13 -20 21 -6 14 -4 14
11 2 15 -11 15 -10 -1 9 -11 12 -16 22 -12 22 4 0 0 7 -8 16 -15 14 -21 35
-17 57 1 5 -3 6 -9 2 -5 -3 -11 0 -12 7 0 7 -2 18 -3 23 0 6 -11 29 -23 53
-13 23 -20 47 -17 51 2 5 -2 12 -11 15 -8 3 -13 10 -10 15 4 5 0 12 -6 14 -10
4 -9 6 1 6 10 1 7 7 -7 20 -12 10 -19 21 -15 25 3 3 1 6 -6 6 -9 0 -9 5 -1 20
9 16 8 18 -5 14 -10 -4 -15 0 -15 12 0 11 -9 34 -20 52 -11 18 -20 39 -20 47
0 8 -5 15 -11 15 -5 0 -8 4 -4 9 3 5 -2 16 -11 25 -8 9 -12 21 -8 27 5 8 3 9
-5 5 -8 -5 -11 -3 -10 5 2 8 -5 28 -14 46 -9 18 -17 40 -17 50 0 15 -2 16 -10
3 -8 -12 -10 -9 -10 13 0 15 -6 27 -12 27 -10 0 -9 3 1 9 11 7 9 10 -8 16 -18
5 -20 9 -10 21 8 9 8 14 2 12 -6 -2 -11 1 -11 6 0 5 -6 13 -14 17 -11 7 -10 9
1 9 11 0 9 4 -5 15 -10 8 -14 15 -9 15 6 0 5 4 -2 8 -6 4 -13 14 -15 22 -2 8
-9 21 -16 28 -7 8 -10 18 -7 23 4 5 1 9 -5 9 -7 0 -10 7 -6 15 3 8 -1 18 -9
22 -7 5 -15 15 -17 23 -2 8 -11 23 -20 34 -10 11 -18 27 -18 36 0 9 -5 21 -12
28 -7 7 -8 12 -3 12 5 0 0 7 -11 16 -10 8 -12 13 -4 9 9 -4 6 2 -5 12 -19 18
-27 35 -28 60 0 7 -4 10 -9 7 -4 -3 -8 2 -8 10 0 26 -2 31 -21 44 -11 7 -19
22 -19 33 0 10 -5 19 -11 19 -5 0 -7 5 -4 10 3 6 1 10 -5 10 -6 0 -8 5 -5 10
3 6 1 10 -5 10 -6 0 -8 5 -5 10 3 6 -1 13 -10 16 -13 5 -13 9 -3 22 8 10 8 13
2 9 -11 -6 -29 19 -26 36 1 4 -5 7 -13 7 -8 0 -15 5 -15 11 0 5 6 7 13 3 6 -4
4 2 -6 13 -9 11 -15 23 -12 26 3 4 2 5 -1 3 -13 -10 -32 19 -22 32 8 9 6 12
-7 12 -10 0 -15 3 -12 6 3 4 -2 18 -13 32 -11 13 -17 28 -14 33 3 5 -2 9 -11
9 -9 0 -13 5 -10 10 3 6 1 10 -5 10 -6 0 -8 5 -5 10 3 6 1 10 -5 10 -6 0 -8 5
-5 10 3 6 1 10 -5 10 -6 0 -8 5 -5 10 3 6 2 10 -3 10 -4 0 -14 16 -22 35 -7
19 -20 37 -27 40 -8 2 -11 9 -8 15 3 5 1 10 -5 10 -6 0 -9 4 -5 9 3 6 -1 13
-9 18 -8 4 -16 17 -18 28 -4 26 -20 44 -32 37 -5 -3 -6 0 -2 6 3 6 1 14 -5 17
-5 4 -8 14 -5 22 3 8 2 12 -2 10 -4 -3 -12 1 -19 8 -10 11 -10 15 0 18 7 3 3
6 -7 6 -11 1 -16 4 -13 8 4 3 -1 15 -10 26 -13 15 -14 18 -3 12 13 -8 13 -6 1
8 -7 9 -17 14 -22 11 -5 -3 -9 -2 -8 3 3 20 -14 52 -25 46 -6 -4 -4 2 4 12 9
11 10 16 3 11 -8 -4 -13 -1 -13 9 0 9 -4 13 -10 10 -6 -3 -10 4 -10 16 0 12
-3 19 -7 16 -6 -7 -33 37 -33 55 0 14 -27 38 -34 31 -3 -4 -6 6 -6 21 0 15 -7
29 -16 33 -8 3 -13 12 -10 20 3 8 1 11 -4 8 -6 -3 -10 -1 -10 5 0 6 -5 8 -10
5 -6 -4 -10 -3 -9 2 3 20 -2 34 -11 28 -5 -3 -7 0 -4 8 3 8 0 18 -5 22 -6 3
-8 11 -5 17 4 6 3 9 -2 6 -11 -7 -35 17 -27 26 4 3 1 6 -6 6 -7 0 -11 6 -8 13
3 7 -4 19 -14 25 -10 7 -19 19 -19 27 0 8 -4 15 -9 15 -5 0 -16 15 -25 34 -9
19 -27 44 -41 57 -13 13 -25 30 -25 37 0 6 -5 12 -11 12 -8 0 -7 6 2 18 7 9
10 14 5 10 -10 -8 -46 22 -46 39 0 7 -14 28 -31 48 -17 19 -28 35 -24 35 5 0
-2 9 -15 20 -13 11 -19 20 -14 20 5 0 1 5 -8 11 -10 5 -18 15 -18 20 0 6 -7
17 -15 26 -8 8 -12 19 -9 25 4 7 2 8 -4 4 -7 -4 -12 -2 -12 5 0 6 -10 20 -22
30 -14 13 -17 19 -7 20 8 0 4 4 -8 9 -13 5 -23 16 -23 25 0 8 -5 15 -12 15 -6
0 -9 3 -5 6 3 4 -7 20 -24 36 -16 16 -27 33 -24 38 3 5 -4 12 -16 15 -17 6
-19 9 -8 16 11 7 10 9 -5 9 -12 0 -16 5 -13 14 4 9 -2 17 -14 21 -17 6 -24 17
-20 38 1 5 -3 6 -9 2 -5 -3 -10 -1 -10 6 0 6 -10 20 -22 30 -11 11 -17 19 -13
19 4 0 -2 9 -14 19 -13 11 -20 24 -17 30 4 5 -3 13 -15 16 -11 4 -18 9 -15 12
3 3 -6 14 -19 25 -14 11 -25 26 -25 34 0 8 -5 14 -11 14 -5 0 -8 4 -5 9 3 5
-1 11 -9 15 -8 3 -15 12 -15 21 0 8 -7 15 -16 15 -8 0 -12 5 -9 10 3 6 1 10
-6 10 -7 0 -10 3 -6 6 8 8 -18 34 -34 34 -8 0 -8 5 2 17 8 9 9 14 4 11 -13 -8
-26 1 -42 27 -6 11 -16 19 -23 17 -6 -1 -9 2 -5 8 7 11 -9 45 -22 45 -4 0 -7
3 -5 8 1 4 -5 7 -14 7 -8 0 -12 5 -9 10 3 6 1 10 -4 10 -6 0 -11 6 -11 13 0 7
-9 18 -20 25 -11 7 -20 19 -20 27 0 8 -7 15 -15 15 -9 0 -12 6 -8 15 3 9 1 15
-5 13 -5 -2 -10 1 -10 5 -1 5 -19 24 -41 44 -23 19 -41 44 -41 55 0 10 -3 17
-7 15 -5 -2 -18 6 -30 19 -15 15 -18 24 -10 27 7 3 3 6 -7 6 -11 1 -16 4 -13
7 3 4 -5 15 -18 26 -14 11 -23 24 -20 29 4 5 -2 6 -11 2 -11 -4 -15 -2 -11 4
3 5 -4 21 -16 34 -12 13 -21 27 -19 32 1 5 -1 7 -5 4 -5 -2 -16 4 -25 15 -10
10 -16 18 -13 18 3 0 -5 11 -17 25 -11 13 -26 21 -31 18 -6 -4 -8 0 -4 10 5
13 1 17 -16 17 -18 0 -19 2 -7 10 13 8 13 10 -2 10 -9 0 -20 5 -24 12 -5 7 -3
8 7 3 8 -5 1 5 -16 21 -16 16 -33 27 -37 26 -5 -1 -8 7 -8 18 0 11 -5 20 -11
20 -5 0 -7 5 -3 12 5 8 2 9 -9 5 -10 -3 -17 -2 -17 3 0 13 -51 65 -61 62 -5
-1 -8 1 -8 5 4 23 -3 32 -18 26 -11 -4 -14 -3 -9 5 8 13 -15 42 -33 42 -5 0
-8 9 -6 20 2 11 0 18 -5 15 -13 -8 -72 53 -64 66 3 5 2 9 -3 8 -23 -4 -35 2
-29 16 3 8 2 14 -2 12 -5 -1 -32 23 -62 53 -30 30 -57 54 -62 53 -4 -2 -5 4
-2 12 4 8 2 15 -3 15 -15 0 -53 36 -53 49 0 7 -4 9 -10 6 -6 -3 -10 4 -10 17
0 16 -3 19 -8 10 -6 -9 -12 -5 -21 14 -6 15 -14 24 -18 20 -6 -6 -23 11 -66
66 -12 15 -28 28 -34 28 -7 0 -13 8 -13 17 0 9 -3 14 -6 10 -7 -6 -34 16 -34
28 0 12 -27 34 -34 28 -3 -4 -6 -1 -6 6 0 7 -4 9 -10 6 -6 -3 -7 1 -4 9 4 11
0 16 -11 16 -9 0 -13 5 -10 10 3 6 -1 10 -9 10 -9 0 -16 8 -16 17 0 9 -3 14
-6 10 -8 -7 -34 17 -34 32 0 6 -7 7 -17 4 -11 -4 -14 -3 -9 5 4 7 2 12 -4 12
-6 0 -8 5 -5 10 3 6 -4 10 -15 10 -17 0 -21 4 -16 17 4 10 4 14 0 11 -4 -4
-19 6 -34 22 -16 17 -33 30 -38 30 -6 0 -19 14 -29 30 -9 17 -22 30 -29 30 -6
0 -19 11 -30 24 -10 14 -21 23 -26 20 -4 -3 -8 5 -8 18 0 18 -2 20 -10 8 -8
-13 -10 -12 -10 4 0 12 -5 16 -16 12 -8 -3 -13 -2 -10 3 6 9 -39 51 -55 51 -5
0 -8 4 -5 8 3 5 -4 14 -14 22 -10 8 -17 17 -14 22 3 4 -2 5 -10 2 -9 -3 -19 3
-26 16 -6 11 -15 18 -19 16 -4 -3 -14 6 -21 19 -7 13 -16 22 -20 20 -9 -6 -50
42 -43 49 4 3 -4 6 -16 6 -12 0 -19 4 -16 10 3 6 -1 10 -10 10 -8 0 -18 7 -21
15 -4 8 -10 12 -15 9 -5 -3 -9 2 -9 11 0 8 -8 19 -17 22 -26 10 -43 29 -35 38
4 5 2 5 -4 2 -6 -3 -18 3 -27 14 -10 11 -23 17 -29 13 -7 -4 -8 -3 -4 4 4 7 1
12 -8 12 -9 0 -15 3 -15 8 3 18 -2 33 -10 28 -12 -8 -52 29 -43 39 4 5 -1 5
-10 2 -12 -4 -18 -1 -18 8 0 8 -7 15 -15 15 -8 0 -15 5 -15 10 0 6 -6 10 -14
10 -8 0 -17 7 -20 16 -3 8 -10 12 -16 9 -6 -4 -7 1 -3 11 4 12 3 15 -5 10 -7
-4 -12 -2 -12 3 0 6 -6 11 -14 11 -8 0 -26 14 -40 31 -14 17 -26 25 -27 17 0
-7 -5 -3 -11 10 -6 12 -17 22 -25 22 -8 0 -11 5 -8 10 6 9 -8 14 -28 11 -5 -1
-6 2 -4 6 2 5 -5 17 -16 28 -11 11 -17 14 -13 8 5 -9 2 -11 -9 -7 -9 4 -14 13
-11 21 3 8 1 11 -4 8 -6 -3 -10 -1 -10 6 0 7 -3 10 -6 6 -3 -3 -15 3 -27 13
-11 11 -24 17 -28 15 -4 -3 -10 3 -14 14 -3 11 -13 25 -22 33 -14 11 -16 11
-9 -2 4 -8 -1 -4 -12 9 -11 13 -24 21 -31 17 -6 -4 -11 -2 -11 4 0 12 -31 47
-37 43 -10 -8 -23 -1 -23 12 0 14 -12 20 -34 16 -5 -1 -6 5 -3 13 4 9 3 15 -1
15 -4 -1 -16 -1 -27 0 -17 1 -18 3 -5 11 12 8 10 10 -8 10 -15 0 -21 4 -16 12
5 8 2 9 -9 5 -11 -4 -17 -1 -17 7 0 7 -11 18 -25 24 -14 6 -25 16 -25 22 0 5
-3 9 -7 9 -20 -3 -34 2 -28 11 3 6 0 10 -8 10 -8 0 -20 7 -27 15 -7 8 -17 12
-23 8 -6 -3 -7 -1 -3 5 4 7 1 12 -8 12 -8 0 -20 8 -25 18 -6 9 -11 13 -11 8 0
-5 -8 1 -19 12 -10 12 -21 19 -25 15 -3 -3 -6 -1 -6 6 0 7 -4 9 -10 6 -5 -3
-10 1 -10 10 0 9 -4 13 -10 10 -5 -3 -10 -1 -10 4 0 6 -7 11 -16 11 -8 0 -13
4 -10 9 4 5 -7 12 -24 16 -17 4 -35 15 -41 26 -5 11 -14 17 -18 14 -5 -3 -11
2 -15 10 -3 8 -12 15 -21 15 -8 0 -15 4 -15 9 0 6 -12 16 -27 24 -16 7 -27 18
-26 25 2 6 -4 9 -12 6 -8 -4 -15 -1 -15 6 0 6 -4 9 -8 6 -5 -3 -14 4 -22 14
-8 10 -17 17 -22 14 -4 -3 -11 2 -14 10 -3 9 -15 16 -26 16 -10 0 -16 5 -13
10 3 6 -1 10 -9 10 -8 0 -19 6 -23 14 -4 8 -12 15 -18 17 -24 4 -41 14 -56 31
-9 10 -21 18 -28 18 -6 0 -11 5 -11 11 0 6 -7 9 -15 5 -9 -3 -15 0 -15 9 0 7
-10 15 -22 17 -13 2 -22 9 -20 16 1 6 -1 11 -5 11 -22 -4 -33 3 -34 19 0 11
-2 12 -6 4 -3 -9 -10 -7 -24 9 -10 12 -19 17 -19 11 0 -7 -8 -5 -19 5 -11 9
-18 20 -15 25 3 4 -1 5 -9 2 -8 -3 -18 0 -22 5 -3 6 -11 8 -17 5 -6 -4 -8 -2
-4 4 3 6 2 13 -4 17 -5 3 -10 0 -10 -7 -1 -7 -6 -3 -13 10 -7 12 -16 20 -19
16 -4 -3 -17 5 -30 18 -13 14 -29 23 -35 21 -7 -3 -13 3 -13 14 0 15 -2 16
-10 3 -7 -11 -10 -11 -10 -2 0 7 -5 10 -10 7 -6 -4 -9 -1 -8 7 2 7 -7 14 -18
16 -12 2 -30 12 -40 23 -9 10 -23 19 -31 19 -7 0 -13 5 -13 12 0 6 -3 9 -6 5
-3 -3 -18 5 -32 19 -15 13 -31 24 -36 24 -6 0 -1 -7 10 -16 18 -14 18 -15 -4
-4 -13 6 -26 18 -29 26 -3 8 -12 14 -20 14 -8 0 -11 4 -8 10 3 5 0 7 -9 4 -8
-3 -21 -1 -28 5 -63 54 -74 60 -63 39 4 -7 0 -5 -7 4 -8 9 -21 18 -28 20 -14
3 -20 7 -54 35 -7 6 -17 9 -20 6 -3 -4 -6 -1 -6 6 0 7 -4 9 -10 6 -5 -3 -10
-1 -10 6 0 7 -3 9 -7 6 -3 -4 -12 1 -20 11 -9 11 -12 11 -7 2 4 -8 -3 -5 -15
8 -12 12 -26 20 -32 17 -5 -4 -9 -1 -9 4 0 6 -7 11 -15 11 -8 0 -15 5 -15 11
0 5 -4 7 -10 4 -5 -3 -10 0 -10 7 0 9 -3 9 -10 -2 -8 -13 -10 -13 -10 2 0 9
-10 18 -22 20 -13 2 -22 9 -20 17 2 8 -3 11 -13 8 -8 -4 -15 -2 -15 3 0 6 -3
9 -7 9 -20 -3 -34 2 -28 11 3 5 0 7 -8 4 -8 -3 -20 2 -27 11 -7 8 -19 15 -26
15 -8 0 -14 6 -14 13 0 8 -4 7 -10 -3 -7 -10 -10 -11 -10 -2 0 12 -47 37 -64
33 -5 -1 -6 4 -3 12 4 10 -2 14 -16 13 -12 -1 -31 6 -41 16 -10 10 -23 15 -28
12 -4 -3 -8 0 -8 6 0 6 -4 8 -10 5 -5 -3 -10 -3 -10 2 0 4 -14 14 -30 21 -17
8 -28 17 -25 21 2 5 -7 7 -20 5 -14 -1 -25 3 -25 9 0 5 -3 7 -6 4 -4 -4 -14 1
-23 11 -9 9 -22 17 -28 18 -30 2 -34 5 -27 16 4 6 3 8 -4 4 -6 -3 -13 -2 -17
3 -3 6 -12 8 -20 4 -9 -3 -15 1 -15 11 0 9 -6 13 -15 10 -8 -3 -21 0 -29 8
-33 29 -46 39 -46 33 0 -3 -13 1 -29 9 -16 9 -31 12 -35 9 -3 -4 -6 2 -6 13 0
14 -2 16 -9 6 -7 -11 -9 -10 -15 3 -3 9 -10 14 -15 10 -5 -3 -12 -1 -16 5 -4
6 -11 8 -16 5 -5 -4 -9 -1 -9 4 0 6 -7 11 -16 11 -8 0 -13 4 -10 9 4 5 -3 7
-14 4 -13 -3 -22 1 -26 11 -5 14 -9 14 -22 4 -12 -10 -14 -10 -8 0 4 7 1 12
-8 12 -9 0 -16 5 -16 11 0 5 -4 7 -10 4 -5 -3 -10 -1 -10 5 0 7 -7 10 -15 6
-8 -3 -15 -1 -15 4 0 6 -9 10 -20 10 -11 0 -20 5 -20 11 0 5 -5 7 -10 4 -6 -3
-13 0 -16 9 -3 8 -14 13 -25 11 -10 -2 -19 1 -19 6 0 6 -4 8 -9 5 -5 -3 -12 2
-15 11 -6 15 -8 15 -16 3 -8 -13 -10 -12 -10 3 0 10 -4 16 -9 12 -11 -6 -61
15 -61 26 0 5 -7 6 -15 3 -8 -4 -15 -2 -15 3 0 5 -10 10 -22 10 -13 1 -24 7
-26 13 -2 5 -7 8 -12 5 -5 -3 -16 2 -24 11 -9 8 -16 13 -16 10 0 -4 -17 2 -39
13 -21 11 -41 17 -45 14 -3 -4 -6 -2 -6 4 0 6 -7 14 -16 17 -10 4 -13 2 -9 -7
4 -6 0 -4 -8 5 -8 10 -17 15 -20 11 -4 -3 -7 0 -7 8 0 11 -2 11 -10 -1 -7 -11
-10 -11 -10 -2 0 7 -4 10 -10 7 -5 -3 -10 -1 -10 4 0 6 -7 11 -16 11 -8 0 -22
7 -30 15 -19 18 -38 20 -28 3 4 -7 -2 -5 -13 5 -11 9 -23 14 -26 10 -4 -3 -7
-1 -7 6 0 7 -4 9 -10 6 -5 -3 -10 -1 -10 5 0 7 -7 9 -16 6 -9 -4 -13 -2 -8 5
4 8 -1 9 -16 4 -15 -5 -20 -4 -16 4 4 7 -1 11 -13 11 -12 0 -21 5 -21 11 0 5
-5 7 -11 3 -6 -3 -15 0 -20 7 -7 12 -9 11 -9 -1 0 -13 -2 -13 -9 -1 -5 8 -20
16 -32 18 -13 2 -26 8 -30 14 -3 6 -9 10 -13 10 -23 -3 -36 0 -31 9 3 5 0 7
-8 4 -8 -3 -18 0 -22 5 -3 6 -10 9 -15 6 -5 -3 -21 2 -35 11 -14 9 -25 13 -25
9 0 -4 -7 -2 -15 5 -8 6 -19 9 -25 5 -5 -3 -10 1 -10 9 0 9 -7 13 -20 11 -11
-2 -20 1 -20 7 0 5 -7 7 -15 4 -9 -3 -18 1 -22 10 -5 13 -7 13 -14 2 -7 -10
-9 -9 -9 5 0 9 -5 17 -11 17 -5 0 -8 -4 -5 -8 3 -5 -1 -9 -9 -9 -8 0 -12 4 -9
9 3 4 -6 8 -20 8 -14 0 -26 5 -26 11 0 5 -4 7 -10 4 -5 -3 -10 -2 -10 4 0 5
-11 8 -25 7 -13 -2 -22 0 -20 5 3 4 1 10 -5 14 -5 3 -10 0 -10 -7 -1 -9 -4 -8
-13 3 -7 9 -23 15 -35 14 -13 -1 -26 3 -28 10 -3 6 -10 12 -17 13 -51 7 -62
11 -59 22 2 11 0 11 -11 1 -12 -9 -16 -9 -19 0 -2 6 -19 14 -38 16 -19 2 -36
8 -38 13 -2 6 -17 10 -32 10 -16 0 -32 5 -35 10 -3 6 -15 10 -26 10 -11 0 -18
4 -15 8 3 5 -8 8 -24 7 -17 -1 -30 2 -30 7 0 5 -4 6 -10 3 -5 -3 -10 -2 -10 3
0 5 -9 12 -20 15 -13 3 -18 1 -13 -6 4 -7 0 -6 -10 1 -9 8 -21 11 -26 8 -5 -4
-14 2 -20 11 -6 11 -11 13 -11 5 0 -7 -5 -10 -10 -7 -6 4 -7 12 -4 18 4 7 4 9
-1 5 -4 -4 -15 -2 -23 5 -13 9 -14 9 -8 0 4 -7 2 -13 -3 -13 -6 0 -11 4 -11
10 0 5 -7 7 -15 4 -8 -4 -15 -1 -15 5 0 9 -5 9 -20 1 -17 -9 -22 -7 -30 12 -5
13 -9 17 -9 11 -1 -7 -6 -13 -12 -13 -5 0 -7 5 -3 12 5 8 2 9 -9 5 -12 -4 -17
-1 -17 10 0 15 -2 15 -13 -2 -10 -13 -16 -15 -21 -6 -4 6 -12 8 -18 5 -7 -5
-8 -2 -3 6 6 10 3 12 -13 8 -16 -5 -19 -2 -15 11 5 13 3 13 -7 4 -10 -9 -16
-8 -28 3 -12 13 -16 13 -23 2 -7 -11 -9 -11 -9 1 0 7 -6 11 -15 7 -8 -3 -15
-1 -15 5 0 5 -8 9 -17 7 -10 -2 -17 2 -16 9 2 9 -4 10 -20 4 -24 -10 -63 9
-49 24 4 5 0 4 -8 -1 -19 -11 -40 -14 -40 -6 0 4 -9 13 -21 20 -12 8 -18 9
-14 3 3 -6 1 -11 -4 -11 -6 0 -11 4 -11 8 0 7 -27 13 -72 15 -10 1 -18 5 -18
10 0 4 -4 6 -9 3 -5 -4 -12 0 -14 6 -4 10 -6 10 -6 1 -1 -7 -8 -10 -16 -7 -8
4 -12 11 -8 18 4 6 -2 4 -12 -4 -13 -10 -16 -11 -11 -2 5 9 3 13 -5 11 -29 -3
-40 1 -33 14 5 8 2 8 -9 -2 -10 -7 -17 -9 -17 -3 0 6 -8 9 -17 8 -10 -2 -21 2
-25 8 -5 8 -8 7 -8 -2 0 -7 -5 -10 -10 -7 -6 4 -7 12 -3 18 4 7 0 6 -10 -2
-11 -9 -17 -10 -17 -2 0 6 -3 10 -7 9 -5 -1 -19 4 -33 12 -23 12 -24 12 -11
-4 12 -14 12 -16 -3 -10 -9 3 -16 10 -16 15 0 4 -7 5 -17 2 -10 -4 -14 -2 -10
4 4 6 -3 8 -18 5 -16 -3 -25 0 -25 8 0 9 -4 9 -17 -1 -11 -10 -14 -10 -9 -1 4
6 3 12 -3 12 -5 0 -12 -6 -14 -12 -3 -8 -6 -6 -6 4 -1 12 -6 15 -18 11 -12 -5
-14 -3 -8 8 7 12 6 12 -7 1 -11 -9 -18 -10 -23 -2 -3 5 -17 10 -31 10 -18 0
-23 4 -18 13 5 8 2 8 -9 -2 -9 -7 -17 -9 -17 -3 0 12 -33 10 -42 -3 -5 -6 -8
-4 -8 5 0 9 -8 16 -17 17 -43 2 -99 16 -105 27 -5 7 -8 6 -8 -4 0 -10 -3 -11
-8 -4 -7 11 -12 12 -67 15 -13 1 -22 5 -19 10 3 5 1 9 -5 9 -5 0 -13 -5 -17
-11 -4 -8 -10 -6 -17 6 -8 14 -11 15 -18 4 -7 -11 -9 -11 -9 -1 0 7 -4 10 -10
7 -5 -3 -10 0 -10 7 0 9 -3 9 -10 -2 -6 -9 -10 -10 -10 -3 0 6 -8 12 -17 12
-73 4 -91 6 -86 15 4 5 -1 7 -10 3 -10 -4 -17 -2 -17 5 0 7 -4 7 -13 -1 -10
-8 -17 -7 -25 1 -6 6 -23 12 -39 14 -15 2 -46 6 -68 9 -22 4 -48 7 -57 8 -10
1 -18 4 -18 7 0 3 -13 5 -30 4 -16 -1 -30 2 -30 7 0 6 -8 5 -19 -1 -14 -7 -20
-7 -23 1 -2 6 -20 11 -41 11 -20 0 -37 3 -37 7 0 3 -21 7 -47 9 -26 1 -51 8
-55 15 -6 9 -8 9 -8 -1 0 -8 -5 -10 -12 -5 -7 4 -31 9 -53 10 -60 5 -65 6 -65
12 0 3 -21 7 -48 9 -61 3 -74 6 -89 15 -8 5 -13 3 -13 -4 0 -8 -4 -8 -12 -2
-14 11 -16 11 -90 14 -27 2 -48 5 -48 9 0 4 -15 6 -32 5 -18 -1 -37 0 -43 4
-5 3 -26 6 -45 7 -19 1 -35 3 -35 4 0 3 -50 9 -106 13 -25 2 -50 7 -57 11 -7
4 -12 2 -12 -6 0 -8 -3 -9 -8 -3 -4 6 -20 11 -37 11 -95 5 -145 10 -145 14 0
3 -15 5 -32 6 -18 1 -67 4 -108 7 -200 17 -301 25 -425 32 -38 2 -110 6 -160
10 -210 13 -323 16 -740 20 -322 2 -444 0 -454 -8 -11 -9 -13 -9 -8 0 5 8 0
11 -13 10 -12 -1 -22 -2 -23 -3z"/>
<path d="M29740 31506 c0 -2 8 -10 18 -17 15 -13 16 -12 3 4 -13 16 -21 21
-21 13z"/>
<path d="M31920 29346 c0 -2 8 -10 18 -17 15 -13 16 -12 3 4 -13 16 -21 21
-21 13z"/>
<path d="M32320 28846 c0 -2 8 -10 18 -17 15 -13 16 -12 3 4 -13 16 -21 21
-21 13z"/>
<path d="M8931 5044 c0 -11 3 -14 6 -6 3 7 2 16 -1 19 -3 4 -6 -2 -5 -13z"/>
</g>
</svg>
